<?xml version="1.0" encoding="utf-8"?>
<!-- Generator: Adobe Illustrator 27.2.0, SVG Export Plug-In . SVG Version: 6.00 Build 0)  -->
<svg version="1.1" id="Layer_1" xmlns="http://www.w3.org/2000/svg" xmlns:xlink="http://www.w3.org/1999/xlink" x="0px" y="0px"
	 viewBox="0 0 448 201" style="enable-background:new 0 0 448 201;" xml:space="preserve">
<style type="text/css">
	.st0{clip-path:url(#SVGID_00000039836667820428173640000006836308111182159749_);}
	.st1{fill:#FFFFFF;filter:url(#Adobe_OpacityMaskFilter);}
	.st2{mask:url(#mask0_120_182_00000084512741375719522390000015955850383746185614_);}
	.st3{fill:#292929;}
	.st4{fill:#FFFFFF;filter:url(#Adobe_OpacityMaskFilter_00000029749498255030956930000004810518933215416979_);}
	.st5{mask:url(#mask1_120_182_00000134933692824243841830000006785542836595139978_);}
	.st6{fill:none;stroke:#292929;stroke-width:5;stroke-linecap:round;stroke-miterlimit:10;}
	.st7{fill:#FFFFFF;filter:url(#Adobe_OpacityMaskFilter_00000171682013853555447220000003836162673536855195_);}
	.st8{mask:url(#mask2_120_182_00000072979774433117114650000016648728011322127234_);}
	.st9{fill:#FFFFFF;filter:url(#Adobe_OpacityMaskFilter_00000072262797154169881920000008562831045245227926_);}
	.st10{mask:url(#mask3_120_182_00000071544524024594444930000016401988525558935960_);}
	.st11{fill:#FFFFFF;filter:url(#Adobe_OpacityMaskFilter_00000118365476726191121120000013153516248257659525_);}
	.st12{mask:url(#mask4_120_182_00000048501451913763233040000001931420836752117180_);}
</style>
<g>
	<defs>
		<rect id="SVGID_1_" width="448" height="201"/>
	</defs>
	<clipPath id="SVGID_00000139972920782318946510000009306304266967174557_">
		<use xlink:href="#SVGID_1_"  style="overflow:visible;"/>
	</clipPath>
	<g style="clip-path:url(#SVGID_00000139972920782318946510000009306304266967174557_);">
		<defs>
			<filter id="Adobe_OpacityMaskFilter" filterUnits="userSpaceOnUse" x="-1.7" y="0" width="89.8" height="200.3">
				<feColorMatrix  type="matrix" values="1 0 0 0 0  0 1 0 0 0  0 0 1 0 0  0 0 0 1 0"/>
			</filter>
		</defs>
		
			<mask maskUnits="userSpaceOnUse" x="-1.7" y="0" width="89.8" height="200.3" id="mask0_120_182_00000084512741375719522390000015955850383746185614_">
			<path class="st1" d="M86.3,0H0v200.5h86.3V0z"/>
		</mask>
		<g class="st2">
			<path class="st3" d="M60.9,52.3l5.7-8.8V29.4H19.7v15.7l6.6,7.2H60.9z"/>
			<path class="st3" d="M28.8,22.3V8.1L43.6,0l13.9,7.7v14.7"/>
			<path class="st3" d="M43.3,185.2c5.3,0,5,7.6,5,15.1h28.9L60.6,54.1H26.3L7.5,200.3h30.9C38.3,193,38.4,185.2,43.3,185.2z"/>
			<path class="st3" d="M57.5,24.8H28.8v2.8h28.8V24.8z"/>
			<defs>
				
					<filter id="Adobe_OpacityMaskFilter_00000059988767051279519690000015842140194460018062_" filterUnits="userSpaceOnUse" x="58.3" y="16.1" width="17.9" height="14.5">
					<feColorMatrix  type="matrix" values="1 0 0 0 0  0 1 0 0 0  0 0 1 0 0  0 0 0 1 0"/>
				</filter>
			</defs>
			
				<mask maskUnits="userSpaceOnUse" x="58.3" y="16.1" width="17.9" height="14.5" id="mask1_120_182_00000134933692824243841830000006785542836595139978_">
				<path style="fill:#FFFFFF;filter:url(#Adobe_OpacityMaskFilter_00000059988767051279519690000015842140194460018062_);" d="
					M74.5,17.7H60.1V29h14.4V17.7z"/>
			</mask>
			<g class="st5">
				<path class="st6" d="M73.7,28.2l-12.9-9.5"/>
			</g>
			<defs>
				
					<filter id="Adobe_OpacityMaskFilter_00000108302764036298832160000015809648830973088693_" filterUnits="userSpaceOnUse" x="58.3" y="1.5" width="17.9" height="14.5">
					<feColorMatrix  type="matrix" values="1 0 0 0 0  0 1 0 0 0  0 0 1 0 0  0 0 0 1 0"/>
				</filter>
			</defs>
			
				<mask maskUnits="userSpaceOnUse" x="58.3" y="1.5" width="17.9" height="14.5" id="mask2_120_182_00000072979774433117114650000016648728011322127234_">
				<path style="fill:#FFFFFF;filter:url(#Adobe_OpacityMaskFilter_00000108302764036298832160000015809648830973088693_);" d="
					M74.5,3.1H60.1v11.3h14.4V3.1z"/>
			</mask>
			<g class="st8">
				<path class="st6" d="M73.7,4l-12.9,9.5"/>
			</g>
			<path class="st6" d="M85.6,16.2H61.3"/>
			<defs>
				
					<filter id="Adobe_OpacityMaskFilter_00000005236351295793820740000014865713865708801163_" filterUnits="userSpaceOnUse" x="10" y="1.5" width="17.9" height="14.5">
					<feColorMatrix  type="matrix" values="1 0 0 0 0  0 1 0 0 0  0 0 1 0 0  0 0 0 1 0"/>
				</filter>
			</defs>
			
				<mask maskUnits="userSpaceOnUse" x="10" y="1.5" width="17.9" height="14.5" id="mask3_120_182_00000071544524024594444930000016401988525558935960_">
				<path style="fill:#FFFFFF;filter:url(#Adobe_OpacityMaskFilter_00000005236351295793820740000014865713865708801163_);" d="
					M26.2,3.1H11.8v11.3h14.4V3.1z"/>
			</mask>
			<g class="st10">
				<path class="st6" d="M12.5,4l12.9,9.5"/>
			</g>
			<defs>
				
					<filter id="Adobe_OpacityMaskFilter_00000064319997621732491290000006670245899438704277_" filterUnits="userSpaceOnUse" x="10" y="16.1" width="17.9" height="14.5">
					<feColorMatrix  type="matrix" values="1 0 0 0 0  0 1 0 0 0  0 0 1 0 0  0 0 0 1 0"/>
				</filter>
			</defs>
			
				<mask maskUnits="userSpaceOnUse" x="10" y="16.1" width="17.9" height="14.5" id="mask4_120_182_00000048501451913763233040000001931420836752117180_">
				<path style="fill:#FFFFFF;filter:url(#Adobe_OpacityMaskFilter_00000064319997621732491290000006670245899438704277_);" d="
					M26.2,17.7H11.8V29h14.4V17.7z"/>
			</mask>
			<g class="st12">
				<path class="st6" d="M12.5,28.2l12.9-9.5"/>
			</g>
			<path class="st6" d="M0.8,16.2H25"/>
		</g>
		<path class="st3" d="M101.4,147.5h-15l22.9-66.4h18.1l22.9,66.4h-15l-16.6-51.2h-0.5L101.4,147.5z M100.5,121.5H136v11h-35.5
			V121.5z M192.8,100.3c-0.3-2.6-1.4-4.6-3.3-6.1c-2-1.4-4.6-2.2-8-2.2c-2.3,0-4.2,0.3-5.8,1c-1.6,0.6-2.8,1.5-3.6,2.6
			c-0.8,1.1-1.2,2.4-1.2,3.8c0,1.2,0.2,2.2,0.7,3.1c0.6,0.9,1.3,1.7,2.3,2.3c1,0.6,2.1,1.2,3.4,1.7c1.3,0.5,2.6,0.8,4.1,1.2l6,1.4
			c2.9,0.6,5.6,1.5,8,2.6c2.4,1.1,4.5,2.4,6.3,4c1.8,1.6,3.1,3.4,4.1,5.6c1,2.1,1.5,4.6,1.5,7.4c0,4.1-1.1,7.6-3.1,10.6
			c-2,3-5,5.3-8.8,6.9c-3.8,1.6-8.4,2.4-13.8,2.4c-5.4,0-10-0.8-14-2.5c-4-1.6-7-4.1-9.3-7.3c-2.2-3.2-3.4-7.2-3.5-12h13.6
			c0.2,2.2,0.8,4.1,1.9,5.6c1.1,1.5,2.7,2.6,4.6,3.3c1.9,0.7,4.1,1.1,6.5,1.1c2.4,0,4.4-0.3,6.2-1c1.8-0.7,3.1-1.7,4.1-2.9
			c1-1.2,1.5-2.6,1.5-4.2c0-1.5-0.4-2.7-1.3-3.8c-0.9-1-2.1-1.9-3.8-2.6c-1.7-0.7-3.7-1.4-6.1-1.9l-7.2-1.8
			c-5.6-1.4-10-3.5-13.3-6.4c-3.2-2.9-4.9-6.8-4.8-11.7c0-4,1-7.5,3.2-10.5c2.2-3,5.2-5.3,9-7c3.8-1.7,8.1-2.5,13-2.5
			c4.9,0,9.2,0.8,12.9,2.5c3.7,1.7,6.6,4,8.6,7c2.1,3,3.1,6.5,3.2,10.4H192.8z M252.6,100.3c-0.3-2.6-1.4-4.6-3.3-6.1
			c-2-1.4-4.6-2.2-8-2.2c-2.3,0-4.2,0.3-5.8,1c-1.6,0.6-2.8,1.5-3.6,2.6c-0.8,1.1-1.2,2.4-1.2,3.8c0,1.2,0.2,2.2,0.7,3.1
			c0.6,0.9,1.3,1.7,2.3,2.3c1,0.6,2.1,1.2,3.4,1.7c1.3,0.5,2.6,0.8,4.1,1.2l6,1.4c2.9,0.6,5.6,1.5,8,2.6s4.5,2.4,6.3,4
			c1.8,1.6,3.1,3.4,4.1,5.6c1,2.1,1.5,4.6,1.5,7.4c0,4.1-1.1,7.6-3.1,10.6c-2,3-5,5.3-8.8,6.9c-3.8,1.6-8.4,2.4-13.8,2.4
			c-5.4,0-10-0.8-14-2.5c-4-1.6-7-4.1-9.3-7.3c-2.2-3.2-3.4-7.2-3.5-12H228c0.2,2.2,0.8,4.1,1.9,5.6c1.1,1.5,2.7,2.6,4.6,3.3
			c1.9,0.7,4.1,1.1,6.5,1.1c2.4,0,4.4-0.3,6.2-1c1.8-0.7,3.1-1.7,4.1-2.9c1-1.2,1.5-2.6,1.5-4.2c0-1.5-0.4-2.7-1.3-3.8
			c-0.9-1-2.1-1.9-3.8-2.6c-1.7-0.7-3.7-1.4-6.1-1.9l-7.2-1.8c-5.6-1.4-10-3.5-13.3-6.4c-3.2-2.9-4.9-6.8-4.8-11.7
			c0-4,1-7.5,3.2-10.5c2.2-3,5.2-5.3,9-7c3.8-1.7,8.1-2.5,13-2.5c4.9,0,9.2,0.8,12.9,2.5c3.7,1.7,6.6,4,8.6,7
			c2.1,3,3.1,6.5,3.2,10.4H252.6z M276.4,147.5V81.2h44.7v11.6h-30.7v15.8h28.4v11.6h-28.4V136h30.8v11.6H276.4z M329.8,92.8V81.2
			h54.5v11.6H364v54.8h-13.9V92.8H329.8z M429.3,100.3c-0.3-2.6-1.4-4.6-3.3-6.1c-2-1.4-4.6-2.2-8-2.2c-2.3,0-4.2,0.3-5.8,1
			c-1.6,0.6-2.8,1.5-3.6,2.6c-0.8,1.1-1.2,2.4-1.2,3.8c0,1.2,0.2,2.2,0.7,3.1c0.6,0.9,1.3,1.7,2.3,2.3c1,0.6,2.1,1.2,3.4,1.7
			c1.3,0.5,2.6,0.8,4.1,1.2l6,1.4c2.9,0.6,5.6,1.5,8,2.6s4.5,2.4,6.3,4c1.8,1.6,3.1,3.4,4.1,5.6c1,2.1,1.5,4.6,1.5,7.4
			c0,4.1-1.1,7.6-3.1,10.6c-2,3-5,5.3-8.8,6.9c-3.8,1.6-8.4,2.4-13.8,2.4c-5.4,0-10-0.8-14-2.5c-4-1.6-7-4.1-9.3-7.3
			c-2.2-3.2-3.4-7.2-3.5-12h13.6c0.2,2.2,0.8,4.1,1.9,5.6c1.1,1.5,2.7,2.6,4.6,3.3c1.9,0.7,4.1,1.1,6.5,1.1c2.4,0,4.4-0.3,6.2-1
			c1.8-0.7,3.1-1.7,4.1-2.9c1-1.2,1.5-2.6,1.5-4.2c0-1.5-0.4-2.7-1.3-3.8c-0.9-1-2.1-1.9-3.8-2.6c-1.7-0.7-3.7-1.4-6.1-1.9l-7.2-1.8
			c-5.6-1.4-10-3.5-13.3-6.4c-3.2-2.9-4.9-6.8-4.8-11.7c0-4,1-7.5,3.2-10.5c2.2-3,5.2-5.3,9-7c3.8-1.7,8.1-2.5,13-2.5
			c4.9,0,9.2,0.8,12.9,2.5c3.7,1.7,6.6,4,8.6,7c2.1,3,3.1,6.5,3.2,10.4H429.3z"/>
		<path class="st3" d="M376,65.2v-1.7l8.1-9.1c1.1-1.2,1.9-2.2,2.6-3.1c0.6-0.9,1.1-1.6,1.4-2.4c0.3-0.7,0.4-1.5,0.4-2.2
			c0-0.9-0.2-1.8-0.7-2.5c-0.4-0.7-1-1.3-1.8-1.7c-0.8-0.4-1.6-0.6-2.6-0.6c-1,0-1.9,0.2-2.7,0.7c-0.8,0.4-1.4,1-1.8,1.8
			c-0.4,0.8-0.6,1.6-0.6,2.6h-2.2c0-1.4,0.3-2.6,0.9-3.7c0.6-1.1,1.5-1.9,2.6-2.5c1.1-0.6,2.4-0.9,3.8-0.9c1.4,0,2.6,0.3,3.7,0.9
			c1.1,0.6,1.9,1.4,2.5,2.4c0.6,1,0.9,2.2,0.9,3.4c0,0.9-0.2,1.8-0.5,2.7c-0.3,0.9-0.9,1.8-1.6,2.9c-0.8,1.1-1.9,2.3-3.2,3.9
			l-6.2,6.9v0.2h12.3v2H376z M401.2,65.6c-1.8,0-3.2-0.5-4.5-1.5c-1.2-1-2.2-2.5-2.8-4.4c-0.7-1.9-1-4.2-1-6.9c0-2.7,0.3-5,1-6.9
			c0.7-1.9,1.6-3.4,2.9-4.4c1.2-1,2.7-1.5,4.5-1.5c1.7,0,3.2,0.5,4.5,1.5c1.2,1,2.2,2.5,2.9,4.4c0.7,1.9,1,4.2,1,6.9
			c0,2.7-0.3,5-1,6.9c-0.7,1.9-1.6,3.4-2.8,4.4C404.5,65.1,403,65.6,401.2,65.6z M401.2,63.5c1.9,0,3.4-0.9,4.5-2.8
			c1.1-1.9,1.6-4.5,1.6-7.9c0-2.3-0.2-4.2-0.7-5.8c-0.5-1.6-1.2-2.8-2.1-3.7c-0.9-0.9-2-1.3-3.3-1.3c-1.9,0-3.4,0.9-4.5,2.8
			c-1.1,1.9-1.6,4.5-1.6,7.9c0,2.3,0.2,4.2,0.7,5.8c0.5,1.6,1.2,2.8,2.1,3.7C398.8,63.1,399.9,63.5,401.2,63.5z M411.1,65.2v-1.7
			l8.1-9.1c1.1-1.2,1.9-2.2,2.6-3.1c0.6-0.9,1.1-1.6,1.4-2.4c0.3-0.7,0.5-1.5,0.5-2.2c0-0.9-0.2-1.8-0.7-2.5c-0.4-0.7-1-1.3-1.8-1.7
			c-0.8-0.4-1.6-0.6-2.6-0.6c-1,0-1.9,0.2-2.7,0.7c-0.8,0.4-1.4,1-1.8,1.8c-0.4,0.8-0.6,1.6-0.6,2.6h-2.2c0-1.4,0.3-2.6,0.9-3.7
			c0.6-1.1,1.5-1.9,2.6-2.5c1.1-0.6,2.4-0.9,3.8-0.9c1.4,0,2.6,0.3,3.7,0.9c1.1,0.6,1.9,1.4,2.5,2.4c0.6,1,0.9,2.2,0.9,3.4
			c0,0.9-0.2,1.8-0.5,2.7c-0.3,0.9-0.9,1.8-1.6,2.9c-0.8,1.1-1.9,2.3-3.2,3.9l-6.2,6.9v0.2h12.3v2H411.1z M427.4,59.9V58l11.1-17.7
			h1.4v3.1h-1l-8.9,14.2v0.2h14.6v2H427.4z M439,65.2v-5.9v-0.9V40.3h2.2v24.9H439z"/>
		<g>
			<path class="st3" d="M201.1,180.1c-0.4-0.4-1-0.6-1.6-0.6c-0.7,0-1.2,0.2-1.6,0.6c-0.4,0.4-0.8,0.9-1,1.5
				c-0.2,0.6-0.3,1.4-0.3,2.2c0,0.8,0.1,1.5,0.3,2.2c0.2,0.6,0.6,1.1,1,1.5c0.4,0.4,1,0.5,1.6,0.5c0.6,0,1.2-0.2,1.6-0.5
				c0.4-0.4,0.8-0.9,1-1.5c0.2-0.6,0.3-1.4,0.3-2.2c0-0.8-0.1-1.5-0.3-2.2C201.9,180.9,201.6,180.4,201.1,180.1z"/>
			<path class="st3" d="M400.8,184.6c-0.3,0-0.5,0.1-0.8,0.1c-0.3,0-0.5,0.1-0.7,0.1c-0.5,0.1-0.9,0.2-1.2,0.3
				c-0.3,0.1-0.6,0.3-0.8,0.6c-0.2,0.2-0.3,0.5-0.3,0.9c0,0.5,0.2,0.9,0.6,1.2c0.4,0.3,0.9,0.4,1.5,0.4c0.6,0,1.1-0.1,1.5-0.3
				c0.4-0.2,0.8-0.5,1-0.9c0.2-0.4,0.4-0.8,0.4-1.3v-1.5c-0.1,0.1-0.3,0.2-0.5,0.2C401.3,184.5,401.1,184.6,400.8,184.6z"/>
			<path class="st3" d="M379.7,180.1c-0.4-0.3-1-0.5-1.6-0.5c-0.6,0-1.2,0.2-1.6,0.5c-0.4,0.3-0.8,0.8-1,1.4
				c-0.2,0.6-0.3,1.3-0.3,2.1c0,0.8,0.1,1.5,0.3,2.2c0.2,0.6,0.6,1.1,1,1.5c0.4,0.3,1,0.5,1.6,0.5c0.6,0,1.2-0.2,1.6-0.5
				c0.4-0.3,0.8-0.8,1-1.5c0.2-0.6,0.4-1.3,0.4-2.2c0-0.8-0.1-1.6-0.3-2.2C380.4,180.9,380.1,180.5,379.7,180.1z"/>
			<path class="st3" d="M333.5,180.1c-0.4-0.4-1-0.6-1.6-0.6c-0.7,0-1.2,0.2-1.6,0.6c-0.4,0.4-0.8,0.9-1,1.5
				c-0.2,0.6-0.3,1.4-0.3,2.2c0,0.8,0.1,1.5,0.3,2.2c0.2,0.6,0.6,1.1,1,1.5c0.4,0.4,1,0.5,1.6,0.5c0.6,0,1.2-0.2,1.6-0.5
				c0.4-0.4,0.8-0.9,1-1.5c0.2-0.6,0.3-1.4,0.3-2.2c0-0.8-0.1-1.5-0.3-2.2C334.2,180.9,333.9,180.4,333.5,180.1z"/>
			<path class="st3" d="M288.3,179.8c-0.4-0.2-0.9-0.4-1.5-0.4c-0.6,0-1.1,0.1-1.6,0.4c-0.4,0.3-0.8,0.6-1.1,1.1
				c-0.2,0.4-0.4,0.9-0.4,1.4h5.9c0-0.6-0.1-1.1-0.4-1.5C289.1,180.4,288.8,180.1,288.3,179.8z"/>
			<path class="st3" d="M70.6,162.5v37.8h376.7v-37.8H70.6z M162.8,188.8c-0.5,0.7-1.3,1.2-2.2,1.6c-0.9,0.4-2,0.6-3.2,0.6
				c-1.9,0-3.3-0.4-4.4-1.2c-1.1-0.8-1.7-1.8-1.9-3.2l3.8-0.2c0.1,0.6,0.4,1,0.8,1.3c0.4,0.3,1,0.4,1.7,0.4c0.7,0,1.2-0.1,1.6-0.4
				c0.4-0.3,0.6-0.6,0.6-1c0-0.4-0.2-0.6-0.4-0.9c-0.3-0.2-0.7-0.4-1.4-0.5l-2.4-0.5c-1.4-0.3-2.4-0.7-3.1-1.4c-0.7-0.7-1-1.5-1-2.6
				c0-0.9,0.2-1.7,0.7-2.3c0.5-0.6,1.2-1.2,2.1-1.5c0.9-0.4,1.9-0.5,3.1-0.5c1.8,0,3.2,0.4,4.2,1.1c1,0.7,1.6,1.8,1.8,3.1l-3.6,0.2
				c-0.1-0.3-0.2-0.6-0.4-0.8c-0.2-0.2-0.5-0.4-0.8-0.6c-0.3-0.2-0.7-0.2-1.2-0.2c-0.6,0-1.1,0.1-1.5,0.4c-0.4,0.2-0.6,0.6-0.6,1
				c0,0.3,0.1,0.6,0.4,0.8c0.3,0.2,0.7,0.4,1.4,0.6l2.5,0.5c1.4,0.3,2.4,0.7,3,1.3c0.7,0.6,1,1.4,1,2.4
				C163.6,187.3,163.3,188.1,162.8,188.8z M172.4,190.8c-0.4,0.1-0.8,0.1-1.3,0.2c-0.9,0-1.8-0.1-2.5-0.4c-0.7-0.3-1.2-0.7-1.6-1.3
				c-0.4-0.6-0.6-1.4-0.6-2.3v-7.3h-1.9v-2.9h1.9v-3.4h3.9v3.4h2.6v2.9h-2.6v6.8c0,0.4,0.1,0.6,0.2,0.8c0.1,0.2,0.3,0.3,0.5,0.4
				c0.2,0.1,0.4,0.1,0.7,0.1c0.2,0,0.4,0,0.5,0c0.2,0,0.3-0.1,0.4-0.1l0.6,2.9C173,190.6,172.8,190.7,172.4,190.8z M179.1,189.9
				c-0.2,0.3-0.5,0.6-0.8,0.8c-0.3,0.2-0.7,0.3-1.1,0.3c-0.6,0-1.1-0.2-1.5-0.6c-0.4-0.4-0.6-0.9-0.6-1.5c0-0.6,0.2-1.1,0.6-1.5
				c0.4-0.4,0.9-0.6,1.5-0.6c0.6,0,1.1,0.2,1.5,0.6c0.4,0.4,0.7,0.9,0.7,1.5C179.5,189.2,179.4,189.5,179.1,189.9z M190.6,191.4
				c0,1.1-0.2,2-0.6,2.6c-0.4,0.7-1,1.2-1.8,1.5c-0.8,0.3-1.7,0.5-2.8,0.5c-0.1,0-0.3,0-0.4,0c-0.1,0-0.3,0-0.4,0v-3
				c0.1,0,0.2,0,0.3,0c0.1,0,0.2,0,0.2,0c0.6,0,1.1-0.1,1.3-0.4c0.3-0.3,0.4-0.7,0.4-1.2v-14.6h3.9V191.4z M190.1,174.4
				c-0.4,0.4-0.9,0.6-1.5,0.6c-0.6,0-1.1-0.2-1.5-0.6c-0.4-0.4-0.6-0.9-0.6-1.4c0-0.5,0.2-1,0.6-1.4c0.4-0.4,0.9-0.6,1.5-0.6
				c0.6,0,1.1,0.2,1.5,0.6c0.4,0.4,0.6,0.8,0.6,1.4C190.7,173.5,190.5,174,190.1,174.4z M205.6,187.6c-0.6,1.1-1.4,1.9-2.4,2.5
				c-1,0.6-2.2,0.9-3.7,0.9c-1.4,0-2.6-0.3-3.7-0.9c-1-0.6-1.8-1.5-2.4-2.5c-0.6-1.1-0.8-2.3-0.8-3.8c0-1.4,0.3-2.7,0.8-3.8
				c0.6-1.1,1.4-1.9,2.4-2.5c1-0.6,2.3-0.9,3.7-0.9c1.4,0,2.6,0.3,3.7,0.9c1,0.6,1.8,1.4,2.4,2.5c0.6,1.1,0.8,2.3,0.8,3.8
				C206.4,185.2,206.1,186.5,205.6,187.6z M221.4,190.7h-3.9v-8.2c0-0.9-0.2-1.5-0.7-2c-0.4-0.5-1.1-0.7-1.8-0.7
				c-0.5,0-1,0.1-1.4,0.3c-0.4,0.2-0.7,0.6-0.9,1c-0.2,0.4-0.3,0.9-0.3,1.5v8.1h-3.9v-18.7h3.8v7.1h0.2c0.3-0.8,0.8-1.5,1.5-1.9
				c0.7-0.5,1.6-0.7,2.7-0.7c1,0,1.8,0.2,2.5,0.6c0.7,0.4,1.3,1,1.7,1.8c0.4,0.8,0.6,1.7,0.6,2.8V190.7z M236.8,190.7h-3.9v-8.2
				c0-0.9-0.2-1.5-0.7-2c-0.4-0.5-1.1-0.7-1.8-0.7c-0.5,0-1,0.1-1.4,0.3c-0.4,0.2-0.7,0.6-0.9,1c-0.2,0.4-0.3,0.9-0.3,1.5v8.1h-3.9
				v-14h3.7v2.5h0.2c0.3-0.8,0.8-1.5,1.6-1.9c0.7-0.5,1.6-0.7,2.7-0.7c1,0,1.8,0.2,2.5,0.6c0.7,0.4,1.3,1,1.7,1.8
				c0.4,0.8,0.6,1.7,0.6,2.8V190.7z M250.5,188.8c-0.5,0.7-1.3,1.2-2.2,1.6c-0.9,0.4-2,0.6-3.2,0.6c-1.9,0-3.3-0.4-4.4-1.2
				c-1.1-0.8-1.7-1.8-1.9-3.2l3.8-0.2c0.1,0.6,0.4,1,0.8,1.3c0.4,0.3,1,0.4,1.7,0.4c0.7,0,1.2-0.1,1.6-0.4c0.4-0.3,0.6-0.6,0.6-1
				c0-0.4-0.2-0.6-0.4-0.9c-0.3-0.2-0.7-0.4-1.3-0.5l-2.4-0.5c-1.4-0.3-2.4-0.7-3.1-1.4c-0.7-0.7-1-1.5-1-2.6c0-0.9,0.2-1.7,0.7-2.3
				c0.5-0.6,1.2-1.2,2.1-1.5c0.9-0.4,1.9-0.5,3.1-0.5c1.8,0,3.2,0.4,4.2,1.1c1,0.7,1.6,1.8,1.8,3.1l-3.6,0.2
				c-0.1-0.3-0.2-0.6-0.4-0.8c-0.2-0.2-0.5-0.4-0.8-0.6c-0.3-0.2-0.7-0.2-1.2-0.2c-0.6,0-1.1,0.1-1.5,0.4c-0.4,0.2-0.6,0.6-0.6,1
				c0,0.3,0.1,0.6,0.4,0.8s0.7,0.4,1.4,0.6l2.5,0.5c1.4,0.3,2.4,0.7,3,1.3c0.7,0.6,1,1.4,1,2.4C251.4,187.3,251.1,188.1,250.5,188.8
				z M257.4,189.2c-0.1,0.8-0.2,1.6-0.5,2.4c-0.2,0.8-0.4,1.5-0.7,2.2c-0.2,0.7-0.4,1.2-0.6,1.5h-2.5c0.1-0.4,0.2-0.9,0.4-1.5
				c0.2-0.6,0.3-1.4,0.4-2.2c0.1-0.8,0.2-1.6,0.3-2.4l0-1h3.2L257.4,189.2z M278,190.7h-3.9v-8.2c0-0.9-0.2-1.5-0.7-2
				c-0.4-0.5-1.1-0.7-1.8-0.7c-0.5,0-1,0.1-1.4,0.3c-0.4,0.2-0.7,0.6-0.9,1c-0.2,0.4-0.3,0.9-0.3,1.5v8.1h-3.9v-14h3.7v2.5h0.2
				c0.3-0.8,0.8-1.5,1.6-1.9c0.7-0.5,1.6-0.7,2.7-0.7c1,0,1.8,0.2,2.5,0.6c0.7,0.4,1.3,1,1.7,1.8c0.4,0.8,0.6,1.7,0.6,2.8V190.7z
				 M293.4,184.7h-9.5v0c0,0.7,0.1,1.3,0.4,1.8c0.3,0.5,0.6,0.9,1.1,1.2c0.5,0.3,1,0.4,1.7,0.4c0.4,0,0.8-0.1,1.2-0.2
				c0.4-0.1,0.7-0.3,0.9-0.5c0.3-0.2,0.5-0.5,0.6-0.9l3.6,0.2c-0.2,0.9-0.6,1.6-1.1,2.3c-0.6,0.6-1.3,1.1-2.2,1.5
				c-0.9,0.4-1.9,0.5-3.1,0.5c-1.4,0-2.7-0.3-3.7-0.9c-1-0.6-1.8-1.4-2.4-2.5c-0.6-1.1-0.8-2.4-0.8-3.8c0-1.4,0.3-2.7,0.8-3.8
				c0.6-1.1,1.3-1.9,2.4-2.5c1-0.6,2.2-0.9,3.6-0.9c0.9,0,1.8,0.1,2.6,0.4c0.8,0.3,1.5,0.7,2.1,1.3c0.6,0.6,1.1,1.3,1.4,2.2
				c0.3,0.9,0.5,1.9,0.5,3.1V184.7z M311.3,190.7h-4.1l-2.4-8.8h-0.2l-2.4,8.8h-4.1l-3.8-14h3.9l2.2,9.4h0.1l2.3-9.4h3.9l2.3,9.3
				h0.1l2.1-9.3h3.9L311.3,190.7z M324.2,176.7v2.9h-2.8v11.1h-3.9v-11.1h-2v-2.9h2v-1c0-1,0.2-1.9,0.6-2.5c0.4-0.7,0.9-1.2,1.6-1.5
				c0.7-0.3,1.5-0.5,2.4-0.5c0.6,0,1.1,0,1.6,0.1c0.5,0.1,0.9,0.2,1.1,0.2l-0.7,2.9c-0.2,0-0.3-0.1-0.6-0.1c-0.2,0-0.4-0.1-0.7-0.1
				c-0.6,0-1,0.1-1.2,0.4c-0.2,0.3-0.3,0.6-0.3,1.1v0.9H324.2z M337.9,187.6c-0.6,1.1-1.4,1.9-2.4,2.5c-1,0.6-2.2,0.9-3.7,0.9
				c-1.4,0-2.6-0.3-3.7-0.9c-1-0.6-1.8-1.5-2.4-2.5c-0.6-1.1-0.8-2.3-0.8-3.8c0-1.4,0.3-2.7,0.8-3.8c0.6-1.1,1.4-1.9,2.4-2.5
				c1-0.6,2.3-0.9,3.7-0.9c1.4,0,2.6,0.3,3.7,0.9c1,0.6,1.8,1.4,2.4,2.5c0.6,1.1,0.8,2.3,0.8,3.8
				C338.7,185.2,338.5,186.5,337.9,187.6z M353.6,190.7h-3.7v-2.5h-0.1c-0.3,0.8-0.8,1.5-1.6,2c-0.7,0.5-1.6,0.7-2.7,0.7
				c-0.9,0-1.8-0.2-2.5-0.6c-0.7-0.4-1.3-1-1.7-1.8c-0.4-0.8-0.6-1.7-0.6-2.8v-8.9h3.9v8.2c0,0.8,0.2,1.5,0.7,2
				c0.4,0.5,1,0.7,1.8,0.7c0.5,0,0.9-0.1,1.3-0.3c0.4-0.2,0.7-0.5,1-1c0.3-0.4,0.4-1,0.4-1.6v-8h3.9V190.7z M369.1,190.7h-3.9v-8.2
				c0-0.9-0.2-1.5-0.7-2c-0.4-0.5-1.1-0.7-1.8-0.7c-0.5,0-1,0.1-1.4,0.3c-0.4,0.2-0.7,0.6-0.9,1c-0.2,0.4-0.3,0.9-0.3,1.5v8.1h-3.9
				v-14h3.7v2.5h0.2c0.3-0.8,0.8-1.5,1.6-1.9c0.7-0.5,1.6-0.7,2.7-0.7c1,0,1.8,0.2,2.5,0.6c0.7,0.4,1.3,1,1.7,1.8
				c0.4,0.8,0.6,1.7,0.6,2.8V190.7z M384.8,190.7H381v-2.2h-0.2c-0.2,0.4-0.4,0.8-0.8,1.2c-0.3,0.4-0.8,0.7-1.3,0.9
				c-0.5,0.2-1.2,0.4-1.9,0.4c-1.1,0-2-0.3-2.9-0.8c-0.9-0.6-1.5-1.4-2-2.4c-0.5-1.1-0.7-2.4-0.7-4c0-1.6,0.3-2.9,0.8-4
				c0.5-1.1,1.2-1.9,2.1-2.4c0.9-0.5,1.8-0.8,2.8-0.8c0.8,0,1.4,0.1,2,0.4c0.5,0.3,1,0.6,1.3,1c0.3,0.4,0.6,0.8,0.7,1.1h0.1v-7h3.9
				V190.7z M391.4,190.7h-3.9v-18.7h3.9V190.7z M405.9,190.7h-3.7v-1.9h-0.1c-0.2,0.4-0.5,0.8-0.9,1.2c-0.4,0.3-0.8,0.6-1.4,0.8
				c-0.5,0.2-1.1,0.3-1.8,0.3c-0.9,0-1.7-0.2-2.4-0.5c-0.7-0.3-1.3-0.8-1.7-1.4c-0.4-0.6-0.6-1.4-0.6-2.3c0-0.8,0.1-1.4,0.4-2
				c0.3-0.5,0.7-1,1.2-1.3c0.5-0.3,1.1-0.6,1.7-0.7c0.6-0.2,1.3-0.3,2-0.3c0.8-0.1,1.5-0.2,2-0.2c0.5-0.1,0.9-0.2,1.1-0.3
				c0.2-0.2,0.3-0.4,0.3-0.7v-0.1c0-0.6-0.2-1-0.5-1.3c-0.4-0.3-0.9-0.5-1.5-0.5c-0.7,0-1.3,0.2-1.7,0.5c-0.4,0.3-0.7,0.7-0.8,1.1
				l-3.6-0.3c0.2-0.9,0.5-1.6,1.1-2.2c0.5-0.6,1.2-1.1,2.1-1.4c0.9-0.3,1.8-0.5,3-0.5c0.8,0,1.5,0.1,2.2,0.3
				c0.7,0.2,1.4,0.5,1.9,0.8c0.6,0.4,1,0.9,1.3,1.5c0.3,0.6,0.5,1.3,0.5,2.1V190.7z M421.3,190.7h-3.9v-8.2c0-0.9-0.2-1.5-0.7-2
				c-0.4-0.5-1.1-0.7-1.8-0.7c-0.5,0-1,0.1-1.4,0.3c-0.4,0.2-0.7,0.6-0.9,1c-0.2,0.4-0.3,0.9-0.3,1.5v8.1h-3.9v-14h3.7v2.5h0.2
				c0.3-0.8,0.8-1.5,1.6-1.9c0.7-0.5,1.6-0.7,2.7-0.7c1,0,1.8,0.2,2.5,0.6c0.7,0.4,1.3,1,1.7,1.8c0.4,0.8,0.6,1.7,0.6,2.8V190.7z
				 M437,190.7h-3.8v-2.2H433c-0.2,0.4-0.4,0.8-0.8,1.2c-0.3,0.4-0.8,0.7-1.3,0.9c-0.5,0.2-1.2,0.4-1.9,0.4c-1.1,0-2-0.3-2.9-0.8
				c-0.9-0.6-1.5-1.4-2-2.4c-0.5-1.1-0.7-2.4-0.7-4c0-1.6,0.3-2.9,0.8-4c0.5-1.1,1.2-1.9,2.1-2.4c0.9-0.5,1.8-0.8,2.8-0.8
				c0.8,0,1.4,0.1,2,0.4c0.5,0.3,1,0.6,1.3,1c0.3,0.4,0.6,0.8,0.7,1.1h0.1v-7h3.9V190.7z"/>
			<path class="st3" d="M431.8,180.1c-0.4-0.3-1-0.5-1.6-0.5c-0.6,0-1.2,0.2-1.6,0.5c-0.4,0.3-0.8,0.8-1,1.4
				c-0.2,0.6-0.3,1.3-0.3,2.1c0,0.8,0.1,1.5,0.3,2.2c0.2,0.6,0.6,1.1,1,1.5c0.4,0.3,1,0.5,1.6,0.5c0.6,0,1.2-0.2,1.6-0.5
				c0.4-0.3,0.8-0.8,1-1.5c0.2-0.6,0.4-1.3,0.4-2.2c0-0.8-0.1-1.6-0.3-2.2C432.6,180.9,432.2,180.5,431.8,180.1z"/>
		</g>
	</g>
</g>
</svg>
