<?xml version="1.0" encoding="utf-8"?>
<!-- Generator: Adobe Illustrator 27.2.0, SVG Export Plug-In . SVG Version: 6.00 Build 0)  -->
<svg version="1.1" id="Layer_1" xmlns="http://www.w3.org/2000/svg" xmlns:xlink="http://www.w3.org/1999/xlink" x="0px" y="0px"
	 viewBox="0 0 448 201" style="enable-background:new 0 0 448 201;" xml:space="preserve">
<style type="text/css">
	.st0{fill:#FFFFFF;filter:url(#Adobe_OpacityMaskFilter);}
	.st1{mask:url(#mask0_120_373_00000169524674954815413990000015357734509541080705_);}
	.st2{fill:#F2F2F2;}
	.st3{fill:#FFFFFF;filter:url(#Adobe_OpacityMaskFilter_00000126302018407704754300000016613034610478469567_);}
	.st4{mask:url(#mask1_120_373_00000142139413445277198710000015694991224785418685_);}
	.st5{fill:none;stroke:#F2F2F2;stroke-width:5;stroke-linecap:round;stroke-miterlimit:10;}
	.st6{fill:#FFFFFF;filter:url(#Adobe_OpacityMaskFilter_00000033336467788699081720000006976192312389512871_);}
	.st7{mask:url(#mask2_120_373_00000109708283205415319500000011627536979708986503_);}
	.st8{fill:#FFFFFF;filter:url(#Adobe_OpacityMaskFilter_00000017475512165161126550000008420989892636794029_);}
	.st9{mask:url(#mask3_120_373_00000181061649242821712580000009913716788842150019_);}
	.st10{fill:#FFFFFF;filter:url(#Adobe_OpacityMaskFilter_00000158731419013205376510000003830737192485435546_);}
	.st11{mask:url(#mask4_120_373_00000170279617473820018510000005446427041260899726_);}
</style>
<defs>
	<filter id="Adobe_OpacityMaskFilter" filterUnits="userSpaceOnUse" x="-1.3" y="0" width="89.8" height="199.7">
		<feColorMatrix  type="matrix" values="1 0 0 0 0  0 1 0 0 0  0 0 1 0 0  0 0 0 1 0"/>
	</filter>
</defs>
<mask maskUnits="userSpaceOnUse" x="-1.3" y="0" width="89.8" height="199.7" id="mask0_120_373_00000169524674954815413990000015357734509541080705_">
	<path class="st0" d="M86.7,0H0.4v200.5h86.3V0z"/>
</mask>
<g class="st1">
	<path class="st2" d="M61.3,52.3l5.7-8.8V29.4H20.1v15.7l6.6,7.2H61.3z"/>
	<path class="st2" d="M29.2,22.3V8.1L44,0l13.9,7.7v14.7"/>
	<path class="st2" d="M43.7,185.2c5.3,0,5,7.3,5,14.4l28.8,0L61.1,54.1L26.8,54L7.7,199.5l31,0.1C38.7,192.7,38.7,185.2,43.7,185.2z
		"/>
	<path class="st2" d="M57.9,24.8H29.2v2.8h28.8V24.8z"/>
	<defs>
		
			<filter id="Adobe_OpacityMaskFilter_00000115500949019511872130000018236825054612786844_" filterUnits="userSpaceOnUse" x="58.7" y="16.1" width="17.9" height="14.5">
			<feColorMatrix  type="matrix" values="1 0 0 0 0  0 1 0 0 0  0 0 1 0 0  0 0 0 1 0"/>
		</filter>
	</defs>
	
		<mask maskUnits="userSpaceOnUse" x="58.7" y="16.1" width="17.9" height="14.5" id="mask1_120_373_00000142139413445277198710000015694991224785418685_">
		<path style="fill:#FFFFFF;filter:url(#Adobe_OpacityMaskFilter_00000115500949019511872130000018236825054612786844_);" d="
			M74.9,17.7H60.5V29h14.4V17.7z"/>
	</mask>
	<g class="st4">
		<path class="st5" d="M74.1,28.2l-12.9-9.5"/>
	</g>
	<defs>
		
			<filter id="Adobe_OpacityMaskFilter_00000141423723992014332200000016080416044068236209_" filterUnits="userSpaceOnUse" x="58.7" y="1.5" width="17.9" height="14.5">
			<feColorMatrix  type="matrix" values="1 0 0 0 0  0 1 0 0 0  0 0 1 0 0  0 0 0 1 0"/>
		</filter>
	</defs>
	
		<mask maskUnits="userSpaceOnUse" x="58.7" y="1.5" width="17.9" height="14.5" id="mask2_120_373_00000109708283205415319500000011627536979708986503_">
		<path style="fill:#FFFFFF;filter:url(#Adobe_OpacityMaskFilter_00000141423723992014332200000016080416044068236209_);" d="
			M74.9,3.1H60.5v11.3h14.4V3.1z"/>
	</mask>
	<g class="st7">
		<path class="st5" d="M74.1,4l-12.9,9.5"/>
	</g>
	<path class="st5" d="M86,16.2H61.7"/>
	<defs>
		
			<filter id="Adobe_OpacityMaskFilter_00000031182298174186153610000005948093937758718389_" filterUnits="userSpaceOnUse" x="10.4" y="1.5" width="17.9" height="14.5">
			<feColorMatrix  type="matrix" values="1 0 0 0 0  0 1 0 0 0  0 0 1 0 0  0 0 0 1 0"/>
		</filter>
	</defs>
	
		<mask maskUnits="userSpaceOnUse" x="10.4" y="1.5" width="17.9" height="14.5" id="mask3_120_373_00000181061649242821712580000009913716788842150019_">
		<path style="fill:#FFFFFF;filter:url(#Adobe_OpacityMaskFilter_00000031182298174186153610000005948093937758718389_);" d="
			M26.6,3.1H12.1v11.3h14.4V3.1z"/>
	</mask>
	<g class="st9">
		<path class="st5" d="M12.9,4l12.9,9.5"/>
	</g>
	<defs>
		
			<filter id="Adobe_OpacityMaskFilter_00000151507739361393072510000017351516395830927267_" filterUnits="userSpaceOnUse" x="10.4" y="16.1" width="17.9" height="14.5">
			<feColorMatrix  type="matrix" values="1 0 0 0 0  0 1 0 0 0  0 0 1 0 0  0 0 0 1 0"/>
		</filter>
	</defs>
	
		<mask maskUnits="userSpaceOnUse" x="10.4" y="16.1" width="17.9" height="14.5" id="mask4_120_373_00000170279617473820018510000005446427041260899726_">
		<path style="fill:#FFFFFF;filter:url(#Adobe_OpacityMaskFilter_00000151507739361393072510000017351516395830927267_);" d="
			M26.6,17.7H12.1V29h14.4V17.7z"/>
	</mask>
	<g class="st11">
		<path class="st5" d="M12.9,28.2l12.9-9.5"/>
	</g>
	<path class="st5" d="M1.2,16.2h24.2"/>
</g>
<path class="st2" d="M101,199.5H86l22.9-66.4H127l22.9,66.4h-15l-16.6-51.2h-0.5L101,199.5z M100.1,173.5h35.5v11h-35.5V173.5z
	 M192.4,152.3c-0.3-2.6-1.4-4.6-3.3-6.1c-2-1.4-4.6-2.2-8-2.2c-2.3,0-4.2,0.3-5.8,1c-1.6,0.6-2.8,1.5-3.6,2.6
	c-0.8,1.1-1.2,2.4-1.2,3.8c0,1.2,0.2,2.2,0.7,3.1c0.6,0.9,1.3,1.7,2.3,2.3c1,0.6,2.1,1.2,3.4,1.7c1.3,0.5,2.6,0.8,4.1,1.2l6,1.4
	c2.9,0.6,5.6,1.5,8,2.6c2.4,1.1,4.5,2.4,6.3,4c1.8,1.6,3.1,3.4,4.1,5.6c1,2.1,1.5,4.6,1.5,7.4c0,4.1-1.1,7.6-3.1,10.6
	c-2,3-5,5.3-8.8,6.9c-3.8,1.6-8.4,2.4-13.8,2.4c-5.4,0-10-0.8-14-2.5c-4-1.6-7-4.1-9.3-7.3c-2.2-3.2-3.4-7.2-3.5-12h13.6
	c0.2,2.2,0.8,4.1,1.9,5.6c1.1,1.5,2.7,2.6,4.6,3.3c1.9,0.7,4.1,1.1,6.5,1.1c2.4,0,4.4-0.3,6.2-1c1.8-0.7,3.1-1.7,4.1-2.9
	c1-1.2,1.5-2.6,1.5-4.2c0-1.5-0.4-2.7-1.3-3.8c-0.9-1-2.1-1.9-3.8-2.6c-1.7-0.7-3.7-1.4-6.1-1.9l-7.2-1.8c-5.6-1.4-10-3.5-13.3-6.4
	c-3.2-2.9-4.9-6.8-4.8-11.7c0-4,1-7.5,3.2-10.5c2.2-3,5.2-5.3,9-7c3.8-1.7,8.1-2.5,13-2.5c4.9,0,9.2,0.8,12.9,2.5
	c3.7,1.7,6.6,4,8.6,7c2.1,3,3.1,6.5,3.2,10.4H192.4z M252.2,152.3c-0.3-2.6-1.4-4.6-3.3-6.1c-2-1.4-4.6-2.2-8-2.2
	c-2.3,0-4.2,0.3-5.8,1c-1.6,0.6-2.8,1.5-3.6,2.6c-0.8,1.1-1.2,2.4-1.2,3.8c0,1.2,0.2,2.2,0.7,3.1c0.6,0.9,1.3,1.7,2.3,2.3
	c1,0.6,2.1,1.2,3.4,1.7c1.3,0.5,2.6,0.8,4.1,1.2l6,1.4c2.9,0.6,5.6,1.5,8,2.6c2.4,1.1,4.5,2.4,6.3,4c1.8,1.6,3.1,3.4,4.1,5.6
	c1,2.1,1.5,4.6,1.5,7.4c0,4.1-1.1,7.6-3.1,10.6c-2,3-5,5.3-8.8,6.9c-3.8,1.6-8.4,2.4-13.8,2.4c-5.4,0-10-0.8-14-2.5
	c-4-1.6-7-4.1-9.3-7.3c-2.2-3.2-3.4-7.2-3.5-12h13.6c0.2,2.2,0.8,4.1,1.9,5.6c1.1,1.5,2.7,2.6,4.6,3.3c1.9,0.7,4.1,1.1,6.5,1.1
	c2.4,0,4.4-0.3,6.2-1c1.8-0.7,3.1-1.7,4.1-2.9c1-1.2,1.5-2.6,1.5-4.2c0-1.5-0.4-2.7-1.3-3.8c-0.9-1-2.1-1.9-3.8-2.6
	c-1.7-0.7-3.7-1.4-6.1-1.9l-7.2-1.8c-5.6-1.4-10-3.5-13.3-6.4c-3.2-2.9-4.9-6.8-4.8-11.7c0-4,1-7.5,3.2-10.5c2.2-3,5.2-5.3,9-7
	c3.8-1.7,8.1-2.5,13-2.5c4.9,0,9.2,0.8,12.9,2.5c3.7,1.7,6.6,4,8.6,7c2.1,3,3.1,6.5,3.2,10.4H252.2z M276.1,199.5v-66.4h44.7v11.6
	h-30.7v15.8h28.4v11.6h-28.4V188h30.8v11.6H276.1z M329.4,144.8v-11.6H384v11.6h-20.3v54.8h-13.9v-54.8H329.4z M429,152.3
	c-0.3-2.6-1.4-4.6-3.3-6.1c-2-1.4-4.6-2.2-8-2.2c-2.3,0-4.2,0.3-5.8,1c-1.6,0.6-2.8,1.5-3.6,2.6c-0.8,1.1-1.2,2.4-1.2,3.8
	c0,1.2,0.2,2.2,0.7,3.1c0.6,0.9,1.3,1.7,2.3,2.3c1,0.6,2.1,1.2,3.4,1.7c1.3,0.5,2.6,0.8,4.1,1.2l6,1.4c2.9,0.6,5.6,1.5,8,2.6
	c2.4,1.1,4.5,2.4,6.3,4c1.8,1.6,3.1,3.4,4.1,5.6c1,2.1,1.5,4.6,1.5,7.4c0,4.1-1.1,7.6-3.1,10.6c-2,3-5,5.3-8.8,6.9
	c-3.8,1.6-8.4,2.4-13.8,2.4c-5.4,0-10-0.8-14-2.5c-4-1.6-7-4.1-9.3-7.3c-2.2-3.2-3.4-7.2-3.5-12h13.6c0.2,2.2,0.8,4.1,1.9,5.6
	c1.1,1.5,2.7,2.6,4.6,3.3c1.9,0.7,4.1,1.1,6.5,1.1c2.4,0,4.4-0.3,6.2-1c1.8-0.7,3.1-1.7,4.1-2.9c1-1.2,1.5-2.6,1.5-4.2
	c0-1.5-0.4-2.7-1.3-3.8c-0.9-1-2.1-1.9-3.8-2.6c-1.7-0.7-3.7-1.4-6.1-1.9l-7.2-1.8c-5.6-1.4-10-3.5-13.3-6.4
	c-3.2-2.9-4.9-6.8-4.8-11.7c0-4,1-7.5,3.2-10.5c2.2-3,5.2-5.3,9-7c3.8-1.7,8.1-2.5,13-2.5c4.9,0,9.2,0.8,12.9,2.5
	c3.7,1.7,6.6,4,8.6,7c2.1,3,3.1,6.5,3.2,10.4H429z"/>
<path class="st2" d="M375.6,117.2v-1.7l8.1-9.1c1.1-1.2,1.9-2.2,2.6-3.1c0.6-0.9,1.1-1.6,1.4-2.4c0.3-0.7,0.5-1.5,0.5-2.2
	c0-0.9-0.2-1.8-0.7-2.5c-0.4-0.7-1-1.3-1.8-1.7c-0.8-0.4-1.6-0.6-2.6-0.6c-1,0-1.9,0.2-2.7,0.7c-0.8,0.4-1.4,1-1.8,1.8
	c-0.4,0.8-0.6,1.6-0.6,2.6h-2.2c0-1.4,0.3-2.6,0.9-3.7c0.6-1.1,1.5-1.9,2.6-2.5c1.1-0.6,2.4-0.9,3.8-0.9c1.4,0,2.6,0.3,3.7,0.9
	c1.1,0.6,1.9,1.4,2.5,2.4c0.6,1,0.9,2.2,0.9,3.4c0,0.9-0.2,1.8-0.5,2.7c-0.3,0.9-0.9,1.8-1.6,2.9c-0.8,1.1-1.9,2.3-3.2,3.9l-6.2,6.9
	v0.2h12.3v2H375.6z M400.9,117.6c-1.8,0-3.2-0.5-4.5-1.5c-1.2-1-2.2-2.5-2.8-4.4c-0.7-1.9-1-4.2-1-6.9c0-2.7,0.3-5,1-6.9
	c0.7-1.9,1.6-3.4,2.9-4.4c1.2-1,2.7-1.5,4.5-1.5c1.7,0,3.2,0.5,4.5,1.5c1.2,1,2.2,2.5,2.9,4.4c0.7,1.9,1,4.2,1,6.9
	c0,2.7-0.3,5-1,6.9c-0.7,1.9-1.6,3.4-2.8,4.4C404.1,117.1,402.6,117.6,400.9,117.6z M400.9,115.5c1.9,0,3.4-0.9,4.5-2.8
	c1.1-1.9,1.6-4.5,1.6-7.9c0-2.3-0.2-4.2-0.7-5.8c-0.5-1.6-1.2-2.8-2.1-3.7c-0.9-0.9-2-1.3-3.3-1.3c-1.9,0-3.4,0.9-4.5,2.8
	c-1.1,1.9-1.6,4.5-1.6,7.9c0,2.3,0.2,4.2,0.7,5.8c0.5,1.6,1.2,2.8,2.1,3.7C398.5,115.1,399.6,115.5,400.9,115.5z M410.7,117.2v-1.7
	l8.1-9.1c1.1-1.2,1.9-2.2,2.6-3.1c0.6-0.9,1.1-1.6,1.4-2.4c0.3-0.7,0.4-1.5,0.4-2.2c0-0.9-0.2-1.8-0.7-2.5c-0.4-0.7-1-1.3-1.8-1.7
	c-0.8-0.4-1.6-0.6-2.6-0.6c-1,0-1.9,0.2-2.7,0.7c-0.8,0.4-1.4,1-1.8,1.8c-0.4,0.8-0.6,1.6-0.6,2.6h-2.2c0-1.4,0.3-2.6,0.9-3.7
	c0.6-1.1,1.5-1.9,2.6-2.5c1.1-0.6,2.4-0.9,3.8-0.9c1.4,0,2.6,0.3,3.7,0.9c1.1,0.6,1.9,1.4,2.5,2.4s0.9,2.2,0.9,3.4
	c0,0.9-0.2,1.8-0.5,2.7c-0.3,0.9-0.9,1.8-1.6,2.9c-0.8,1.1-1.9,2.3-3.2,3.9l-6.2,6.9v0.2h12.3v2H410.7z M427,111.9V110l11.1-17.7
	h1.4v3.1h-1l-8.9,14.2v0.2h14.6v2H427z M438.7,117.2v-5.9v-0.8V92.3h2.2v24.9H438.7z"/>
</svg>
