<?xml version="1.0" encoding="UTF-8"?><svg id="uuid-06305b1d-e916-41ff-b1f1-5879e9183699" xmlns="http://www.w3.org/2000/svg" viewBox="0 0 89.8 200.3"><g id="uuid-78d31a1e-f147-47c4-979e-6d9b3903a163"><g><path d="m62.6,52.3l5.7-8.8v-14.1H21.4v15.7l6.6,7.2h34.6Z" style="fill:#fff;"/><path d="m30.5,22.3v-14.2L45.3,0l13.9,7.7v14.7" style="fill:#fff;"/><path d="m45,185.2c5.3,0,5,7.6,5,15.1h28.9L62.3,54.1H28L9.2,200.3h30.9c-.1-7.3,0-15.1,4.9-15.1Z" style="fill:#fff;"/><path d="m59.2,24.8h-28.7v2.8h28.8v-2.8h-.1Z" style="fill:#fff;"/><path d="m75.4,28.2l-12.9-9.5" style="fill:none; stroke:#fff; stroke-linecap:round; stroke-miterlimit:10; stroke-width:5px;"/><path d="m75.4,4l-12.9,9.5" style="fill:none; stroke:#fff; stroke-linecap:round; stroke-miterlimit:10; stroke-width:5px;"/><path d="m87.3,16.2h-24.3" style="fill:none; stroke:#fff; stroke-linecap:round; stroke-miterlimit:10; stroke-width:5px;"/><path d="m14.2,4l12.9,9.5" style="fill:none; stroke:#fff; stroke-linecap:round; stroke-miterlimit:10; stroke-width:5px;"/><path d="m14.2,28.2l12.9-9.5" style="fill:none; stroke:#fff; stroke-linecap:round; stroke-miterlimit:10; stroke-width:5px;"/><path d="m2.5,16.2h24.2" style="fill:none; stroke:#fff; stroke-linecap:round; stroke-miterlimit:10; stroke-width:5px;"/></g></g></svg>