<?xml version="1.0" encoding="UTF-8"?><svg id="uuid-408349b2-0759-4d1b-a9d8-4d1bd2367648" xmlns="http://www.w3.org/2000/svg" viewBox="0 0 449 200.3"><g id="uuid-04294671-aca3-4ccb-8f86-4226dc28ea12"><g><g><path d="m62.6,52.3l5.7-8.8v-14.1H21.4v15.7l6.6,7.2h34.6Z"/><path d="m30.5,22.3v-14.2L45.3,0l13.9,7.7v14.7"/><path d="m45,185.2c5.3,0,5,7.6,5,15.1h28.9L62.3,54.1H28L9.2,200.3h30.9c-.1-7.3,0-15.1,4.9-15.1Z"/><path d="m59.2,24.8h-28.7v2.8h28.8v-2.8h-.1Z"/><path d="m75.4,28.2l-12.9-9.5" style="fill:none; stroke:#000; stroke-linecap:round; stroke-miterlimit:10; stroke-width:5px;"/><path d="m75.4,4l-12.9,9.5" style="fill:none; stroke:#000; stroke-linecap:round; stroke-miterlimit:10; stroke-width:5px;"/><path d="m87.3,16.2h-24.3" style="fill:none; stroke:#000; stroke-linecap:round; stroke-miterlimit:10; stroke-width:5px;"/><path d="m14.2,4l12.9,9.5" style="fill:none; stroke:#000; stroke-linecap:round; stroke-miterlimit:10; stroke-width:5px;"/><path d="m14.2,28.2l12.9-9.5" style="fill:none; stroke:#000; stroke-linecap:round; stroke-miterlimit:10; stroke-width:5px;"/><path d="m2.5,16.2h24.2" style="fill:none; stroke:#000; stroke-linecap:round; stroke-miterlimit:10; stroke-width:5px;"/></g><path d="m103.1,147.5h-15l22.9-66.4h18.1l22.9,66.4h-15l-16.6-51.2h-.5l-16.8,51.2Zm-.9-26h35.5v11h-35.5v-11Zm92.3-21.2c-.3-2.6-1.4-4.6-3.3-6.1-2-1.4-4.6-2.2-8-2.2-2.3,0-4.2.3-5.8,1-1.6.6-2.8,1.5-3.6,2.6s-1.2,2.4-1.2,3.8c0,1.2.2,2.2.7,3.1.6.9,1.3,1.7,2.3,2.3,1,.6,2.1,1.2,3.4,1.7,1.3.5,2.6.8,4.1,1.2l6,1.4c2.9.6,5.6,1.5,8,2.6s4.5,2.4,6.3,4,3.1,3.4,4.1,5.6c1,2.1,1.5,4.6,1.5,7.4,0,4.1-1.1,7.6-3.1,10.6s-5,5.3-8.8,6.9c-3.8,1.6-8.4,2.4-13.8,2.4s-10-.8-14-2.5c-4-1.6-7-4.1-9.3-7.3-2.2-3.2-3.4-7.2-3.5-12h13.6c.2,2.2.8,4.1,1.9,5.6,1.1,1.5,2.7,2.6,4.6,3.3,1.9.7,4.1,1.1,6.5,1.1s4.4-.3,6.2-1,3.1-1.7,4.1-2.9,1.5-2.6,1.5-4.2c0-1.5-.4-2.7-1.3-3.8-.9-1-2.1-1.9-3.8-2.6s-3.7-1.4-6.1-1.9l-7.2-1.8c-5.6-1.4-10-3.5-13.3-6.4-3.2-2.9-4.9-6.8-4.8-11.7,0-4,1-7.5,3.2-10.5s5.2-5.3,9-7,8.1-2.5,13-2.5,9.2.8,12.9,2.5,6.6,4,8.6,7c2.1,3,3.1,6.5,3.2,10.4h-13.8v-.1Zm59.8,0c-.3-2.6-1.4-4.6-3.3-6.1-2-1.4-4.6-2.2-8-2.2-2.3,0-4.2.3-5.8,1-1.6.6-2.8,1.5-3.6,2.6s-1.2,2.4-1.2,3.8c0,1.2.2,2.2.7,3.1.6.9,1.3,1.7,2.3,2.3,1,.6,2.1,1.2,3.4,1.7,1.3.5,2.6.8,4.1,1.2l6,1.4c2.9.6,5.6,1.5,8,2.6,2.4,1.1,4.5,2.4,6.3,4s3.1,3.4,4.1,5.6c1,2.1,1.5,4.6,1.5,7.4,0,4.1-1.1,7.6-3.1,10.6s-5,5.3-8.8,6.9c-3.8,1.6-8.4,2.4-13.8,2.4s-10-.8-14-2.5c-4-1.6-7-4.1-9.3-7.3-2.2-3.2-3.4-7.2-3.5-12h13.4c.2,2.2.8,4.1,1.9,5.6,1.1,1.5,2.7,2.6,4.6,3.3,1.9.7,4.1,1.1,6.5,1.1s4.4-.3,6.2-1,3.1-1.7,4.1-2.9,1.5-2.6,1.5-4.2c0-1.5-.4-2.7-1.3-3.8-.9-1-2.1-1.9-3.8-2.6s-3.7-1.4-6.1-1.9l-7.2-1.8c-5.6-1.4-10-3.5-13.3-6.4-3.2-2.9-4.9-6.8-4.8-11.7,0-4,1-7.5,3.2-10.5s5.2-5.3,9-7,8.1-2.5,13-2.5,9.2.8,12.9,2.5,6.6,4,8.6,7c2.1,3,3.1,6.5,3.2,10.4h-13.6v-.1Zm23.8,47.2v-66.3h44.7v11.6h-30.7v15.8h28.4v11.6h-28.4v15.8h30.8v11.6h-44.8v-.1Zm53.4-54.7v-11.6h54.5v11.6h-20.3v54.8h-13.9v-54.8h-20.3Zm99.5,7.5c-.3-2.6-1.4-4.6-3.3-6.1-2-1.4-4.6-2.2-8-2.2-2.3,0-4.2.3-5.8,1-1.6.6-2.8,1.5-3.6,2.6-.8,1.1-1.2,2.4-1.2,3.8,0,1.2.2,2.2.7,3.1.6.9,1.3,1.7,2.3,2.3,1,.6,2.1,1.2,3.4,1.7s2.6.8,4.1,1.2l6,1.4c2.9.6,5.6,1.5,8,2.6s4.5,2.4,6.3,4,3.1,3.4,4.1,5.6c1,2.1,1.5,4.6,1.5,7.4,0,4.1-1.1,7.6-3.1,10.6s-5,5.3-8.8,6.9c-3.8,1.6-8.4,2.4-13.8,2.4s-10-.8-14-2.5c-4-1.6-7-4.1-9.3-7.3-2.2-3.2-3.4-7.2-3.5-12h13.6c.2,2.2.8,4.1,1.9,5.6s2.7,2.6,4.6,3.3,4.1,1.1,6.5,1.1,4.4-.3,6.2-1c1.8-.7,3.1-1.7,4.1-2.9s1.5-2.6,1.5-4.2c0-1.5-.4-2.7-1.3-3.8-.9-1-2.1-1.9-3.8-2.6-1.7-.7-3.7-1.4-6.1-1.9l-7.2-1.8c-5.6-1.4-10-3.5-13.3-6.4-3.2-2.9-4.9-6.8-4.8-11.7,0-4,1-7.5,3.2-10.5s5.2-5.3,9-7,8.1-2.5,13-2.5,9.2.8,12.9,2.5c3.7,1.7,6.6,4,8.6,7,2.1,3,3.1,6.5,3.2,10.4h-13.8v-.1Z"/><path d="m377.7,65.2v-1.7l8.1-9.1c1.1-1.2,1.9-2.2,2.6-3.1.6-.9,1.1-1.6,1.4-2.4.3-.7.4-1.5.4-2.2,0-.9-.2-1.8-.7-2.5-.4-.7-1-1.3-1.8-1.7s-1.6-.6-2.6-.6-1.9.2-2.7.7c-.8.4-1.4,1-1.8,1.8s-.6,1.6-.6,2.6h-2.2c0-1.4.3-2.6.9-3.7.6-1.1,1.5-1.9,2.6-2.5s2.4-.9,3.8-.9,2.6.3,3.7.9c1.1.6,1.9,1.4,2.5,2.4s.9,2.2.9,3.4c0,.9-.2,1.8-.5,2.7s-.9,1.8-1.6,2.9c-.8,1.1-1.9,2.3-3.2,3.9l-6.2,6.9v.2h12.3v2h-15.3Zm25.2.4c-1.8,0-3.2-.5-4.5-1.5-1.2-1-2.2-2.5-2.8-4.4-.7-1.9-1-4.2-1-6.9s.3-5,1-6.9,1.6-3.4,2.9-4.4c1.2-1,2.7-1.5,4.5-1.5,1.7,0,3.2.5,4.5,1.5,1.2,1,2.2,2.5,2.9,4.4.7,1.9,1,4.2,1,6.9s-.3,5-1,6.9-1.6,3.4-2.8,4.4c-1.4,1-2.9,1.5-4.7,1.5Zm0-2.1c1.9,0,3.4-.9,4.5-2.8,1.1-1.9,1.6-4.5,1.6-7.9,0-2.3-.2-4.2-.7-5.8s-1.2-2.8-2.1-3.7-2-1.3-3.3-1.3c-1.9,0-3.4.9-4.5,2.8-1.1,1.9-1.6,4.5-1.6,7.9,0,2.3.2,4.2.7,5.8s1.2,2.8,2.1,3.7c.9.9,2,1.3,3.3,1.3Zm9.9,1.7v-1.7l8.1-9.1c1.1-1.2,1.9-2.2,2.6-3.1.6-.9,1.1-1.6,1.4-2.4.3-.7.5-1.5.5-2.2,0-.9-.2-1.8-.7-2.5-.4-.7-1-1.3-1.8-1.7s-1.6-.6-2.6-.6-1.9.2-2.7.7c-.8.4-1.4,1-1.8,1.8s-.6,1.6-.6,2.6h-2.2c0-1.4.3-2.6.9-3.7.6-1.1,1.5-1.9,2.6-2.5s2.4-.9,3.8-.9,2.6.3,3.7.9c1.1.6,1.9,1.4,2.5,2.4s.9,2.2.9,3.4c0,.9-.2,1.8-.5,2.7s-.9,1.8-1.6,2.9c-.8,1.1-1.9,2.3-3.2,3.9l-6.2,6.9v.2h12.3v2h-15.4Zm16.3-5.3v-1.9l11.1-17.7h1.4v3.1h-1l-8.9,14.2v.2h14.6v2h-17.2v.1Zm11.6,5.3v-24.9h2.2v24.9h-2.2Z"/><g><path d="m202.8,180.1c-.4-.4-1-.6-1.6-.6-.7,0-1.2.2-1.6.6s-.8.9-1,1.5-.3,1.4-.3,2.2.1,1.5.3,2.2c.2.6.6,1.1,1,1.5s1,.5,1.6.5,1.2-.2,1.6-.5c.4-.4.8-.9,1-1.5s.3-1.4.3-2.2-.1-1.5-.3-2.2c-.2-.7-.5-1.2-1-1.5Z"/><path d="m402.5,184.6c-.3,0-.5.1-.8.1s-.5.1-.7.1c-.5.1-.9.2-1.2.3-.3.1-.6.3-.8.6-.2.2-.3.5-.3.9,0,.5.2.9.6,1.2s.9.4,1.5.4,1.1-.1,1.5-.3.8-.5,1-.9.4-.8.4-1.3v-1.5c-.1.1-.3.2-.5.2-.2.1-.4.2-.7.2Z"/><path d="m381.4,180.1c-.4-.3-1-.5-1.6-.5s-1.2.2-1.6.5-.8.8-1,1.4c-.2.6-.3,1.3-.3,2.1s.1,1.5.3,2.2c.2.6.6,1.1,1,1.5.4.3,1,.5,1.6.5s1.2-.2,1.6-.5.8-.8,1-1.5c.2-.6.4-1.3.4-2.2,0-.8-.1-1.6-.3-2.2-.4-.5-.7-.9-1.1-1.3Z"/><path d="m335.2,180.1c-.4-.4-1-.6-1.6-.6-.7,0-1.2.2-1.6.6-.4.4-.8.9-1,1.5s-.3,1.4-.3,2.2.1,1.5.3,2.2c.2.6.6,1.1,1,1.5s1,.5,1.6.5,1.2-.2,1.6-.5c.4-.4.8-.9,1-1.5s.3-1.4.3-2.2-.1-1.5-.3-2.2c-.3-.7-.6-1.2-1-1.5Z"/><path d="m290,179.8c-.4-.2-.9-.4-1.5-.4s-1.1.1-1.6.4c-.4.3-.8.6-1.1,1.1-.2.4-.4.9-.4,1.4h5.9c0-.6-.1-1.1-.4-1.5-.1-.4-.4-.7-.9-1Z"/><path d="m72.3,162.5v37.8h376.7v-37.8H72.3Zm92.2,26.3c-.5.7-1.3,1.2-2.2,1.6-.9.4-2,.6-3.2.6-1.9,0-3.3-.4-4.4-1.2-1.1-.8-1.7-1.8-1.9-3.2l3.8-.2c.1.6.4,1,.8,1.3.4.3,1,.4,1.7.4s1.2-.1,1.6-.4c.4-.3.6-.6.6-1s-.2-.6-.4-.9c-.3-.2-.7-.4-1.4-.5l-2.4-.5c-1.4-.3-2.4-.7-3.1-1.4-.7-.7-1-1.5-1-2.6,0-.9.2-1.7.7-2.3s1.2-1.2,2.1-1.5c.9-.4,1.9-.5,3.1-.5,1.8,0,3.2.4,4.2,1.1,1,.7,1.6,1.8,1.8,3.1l-3.6.2c-.1-.3-.2-.6-.4-.8s-.5-.4-.8-.6c-.3-.2-.7-.2-1.2-.2-.6,0-1.1.1-1.5.4-.4.2-.6.6-.6,1,0,.3.1.6.4.8.3.2.7.4,1.4.6l2.5.5c1.4.3,2.4.7,3,1.3.7.6,1,1.4,1,2.4.2,1-.1,1.8-.6,2.5Zm9.6,2c-.4.1-.8.1-1.3.2-.9,0-1.8-.1-2.5-.4-.7-.3-1.2-.7-1.6-1.3-.4-.6-.6-1.4-.6-2.3v-7.3h-1.9v-2.9h1.9v-3.4h3.9v3.4h2.6v2.9h-2.6v6.8c0,.4.1.6.2.8.1.2.3.3.5.4.2.1.4.1.7.1h.5c.2,0,.3-.1.4-.1l.6,2.9c-.2,0-.4.1-.8.2Zm6.7-.9c-.2.3-.5.6-.8.8s-.7.3-1.1.3c-.6,0-1.1-.2-1.5-.6-.4-.4-.6-.9-.6-1.5s.2-1.1.6-1.5c.4-.4.9-.6,1.5-.6s1.1.2,1.5.6c.4.4.7.9.7,1.5.1.3,0,.6-.3,1Zm11.5,1.5c0,1.1-.2,2-.6,2.6-.4.7-1,1.2-1.8,1.5s-1.7.5-2.8.5h-.8v-3h.5c.6,0,1.1-.1,1.3-.4.3-.3.4-.7.4-1.2v-14.6h3.9v14.6h-.1Zm-.5-17c-.4.4-.9.6-1.5.6s-1.1-.2-1.5-.6c-.4-.4-.6-.9-.6-1.4s.2-1,.6-1.4c.4-.4.9-.6,1.5-.6s1.1.2,1.5.6c.4.4.6.8.6,1.4,0,.5-.2,1-.6,1.4Zm15.5,13.2c-.6,1.1-1.4,1.9-2.4,2.5s-2.2.9-3.7.9c-1.4,0-2.6-.3-3.7-.9-1-.6-1.8-1.5-2.4-2.5-.6-1.1-.8-2.3-.8-3.8,0-1.4.3-2.7.8-3.8.6-1.1,1.4-1.9,2.4-2.5s2.3-.9,3.7-.9,2.6.3,3.7.9c1,.6,1.8,1.4,2.4,2.5.6,1.1.8,2.3.8,3.8,0,1.4-.3,2.7-.8,3.8Zm15.8,3.1h-3.9v-8.2c0-.9-.2-1.5-.7-2-.4-.5-1.1-.7-1.8-.7-.5,0-1,.1-1.4.3s-.7.6-.9,1-.3.9-.3,1.5v8.1h-3.9v-18.7h3.8v7.1h.2c.3-.8.8-1.5,1.5-1.9.7-.5,1.6-.7,2.7-.7,1,0,1.8.2,2.5.6.7.4,1.3,1,1.7,1.8s.6,1.7.6,2.8v9h-.1Zm15.4,0h-3.9v-8.2c0-.9-.2-1.5-.7-2-.4-.5-1.1-.7-1.8-.7-.5,0-1,.1-1.4.3s-.7.6-.9,1-.3.9-.3,1.5v8.1h-3.9v-14h3.7v2.5h.2c.3-.8.8-1.5,1.6-1.9.7-.5,1.6-.7,2.7-.7,1,0,1.8.2,2.5.6.7.4,1.3,1,1.7,1.8s.6,1.7.6,2.8v8.9h-.1Zm13.7-1.9c-.5.7-1.3,1.2-2.2,1.6-.9.4-2,.6-3.2.6-1.9,0-3.3-.4-4.4-1.2-1.1-.8-1.7-1.8-1.9-3.2l3.8-.2c.1.6.4,1,.8,1.3.4.3,1,.4,1.7.4s1.2-.1,1.6-.4c.4-.3.6-.6.6-1s-.2-.6-.4-.9c-.3-.2-.7-.4-1.3-.5l-2.4-.5c-1.4-.3-2.4-.7-3.1-1.4-.7-.7-1-1.5-1-2.6,0-.9.2-1.7.7-2.3s1.2-1.2,2.1-1.5c.9-.4,1.9-.5,3.1-.5,1.8,0,3.2.4,4.2,1.1,1,.7,1.6,1.8,1.8,3.1l-3.6.2c-.1-.3-.2-.6-.4-.8s-.5-.4-.8-.6c-.3-.2-.7-.2-1.2-.2-.6,0-1.1.1-1.5.4-.4.2-.6.6-.6,1,0,.3.1.6.4.8s.7.4,1.4.6l2.5.5c1.4.3,2.4.7,3,1.3.7.6,1,1.4,1,2.4.2,1-.1,1.8-.7,2.5Zm6.9.4c-.1.8-.2,1.6-.5,2.4-.2.8-.4,1.5-.7,2.2-.2.7-.4,1.2-.6,1.5h-2.5c.1-.4.2-.9.4-1.5s.3-1.4.4-2.2c.1-.8.2-1.6.3-2.4v-1h3.2v1Zm20.6,1.5h-3.9v-8.2c0-.9-.2-1.5-.7-2-.4-.5-1.1-.7-1.8-.7-.5,0-1,.1-1.4.3s-.7.6-.9,1c-.2.4-.3.9-.3,1.5v8.1h-3.9v-14h3.7v2.5h.2c.3-.8.8-1.5,1.6-1.9.7-.5,1.6-.7,2.7-.7,1,0,1.8.2,2.5.6.7.4,1.3,1,1.7,1.8.4.8.6,1.7.6,2.8v8.9h-.1Zm15.4-6h-9.5c0,.7.1,1.3.4,1.8s.6.9,1.1,1.2,1,.4,1.7.4c.4,0,.8-.1,1.2-.2.4-.1.7-.3.9-.5.3-.2.5-.5.6-.9l3.6.2c-.2.9-.6,1.6-1.1,2.3-.6.6-1.3,1.1-2.2,1.5-.9.4-1.9.5-3.1.5-1.4,0-2.7-.3-3.7-.9-1-.6-1.8-1.4-2.4-2.5s-.8-2.4-.8-3.8.3-2.7.8-3.8c.6-1.1,1.3-1.9,2.4-2.5,1-.6,2.2-.9,3.6-.9.9,0,1.8.1,2.6.4.8.3,1.5.7,2.1,1.3s1.1,1.3,1.4,2.2.5,1.9.5,3.1v1.1h-.1Zm17.9,6h-4.1l-2.4-8.8h-.2l-2.4,8.8h-4.1l-3.8-14h3.9l2.2,9.4h.1l2.3-9.4h3.9l2.3,9.3h.1l2.1-9.3h3.9l-3.8,14Zm12.9-14v2.9h-2.8v11.1h-3.9v-11.1h-2v-2.9h2v-1c0-1,.2-1.9.6-2.5.4-.7.9-1.2,1.6-1.5s1.5-.5,2.4-.5c.6,0,1.1,0,1.6.1s.9.2,1.1.2l-.7,2.9c-.2,0-.3-.1-.6-.1-.2,0-.4-.1-.7-.1-.6,0-1,.1-1.2.4-.2.3-.3.6-.3,1.1v.9h2.9v.1Zm13.7,10.9c-.6,1.1-1.4,1.9-2.4,2.5s-2.2.9-3.7.9c-1.4,0-2.6-.3-3.7-.9-1-.6-1.8-1.5-2.4-2.5-.6-1.1-.8-2.3-.8-3.8,0-1.4.3-2.7.8-3.8.6-1.1,1.4-1.9,2.4-2.5s2.3-.9,3.7-.9,2.6.3,3.7.9c1,.6,1.8,1.4,2.4,2.5s.8,2.3.8,3.8c0,1.4-.2,2.7-.8,3.8Zm15.7,3.1h-3.7v-2.5h-.1c-.3.8-.8,1.5-1.6,2-.7.5-1.6.7-2.7.7-.9,0-1.8-.2-2.5-.6-.7-.4-1.3-1-1.7-1.8-.4-.8-.6-1.7-.6-2.8v-8.9h3.9v8.2c0,.8.2,1.5.7,2,.4.5,1,.7,1.8.7.5,0,.9-.1,1.3-.3s.7-.5,1-1c.3-.4.4-1,.4-1.6v-8h3.9v13.9h-.1Zm15.5,0h-3.9v-8.2c0-.9-.2-1.5-.7-2-.4-.5-1.1-.7-1.8-.7-.5,0-1,.1-1.4.3s-.7.6-.9,1c-.2.4-.3.9-.3,1.5v8.1h-3.9v-14h3.7v2.5h.2c.3-.8.8-1.5,1.6-1.9.7-.5,1.6-.7,2.7-.7,1,0,1.8.2,2.5.6.7.4,1.3,1,1.7,1.8.4.8.6,1.7.6,2.8v8.9h-.1Zm15.7,0h-3.8v-2.2h-.2c-.2.4-.4.8-.8,1.2-.3.4-.8.7-1.3.9s-1.2.4-1.9.4c-1.1,0-2-.3-2.9-.8-.9-.6-1.5-1.4-2-2.4-.5-1.1-.7-2.4-.7-4s.3-2.9.8-4,1.2-1.9,2.1-2.4,1.8-.8,2.8-.8c.8,0,1.4.1,2,.4.5.3,1,.6,1.3,1s.6.8.7,1.1h.1v-7h3.9v18.6h-.1Zm6.6,0h-3.9v-18.7h3.9v18.7Zm14.5,0h-3.7v-1.9h-.1c-.2.4-.5.8-.9,1.2-.4.3-.8.6-1.4.8-.5.2-1.1.3-1.8.3-.9,0-1.7-.2-2.4-.5-.7-.3-1.3-.8-1.7-1.4-.4-.6-.6-1.4-.6-2.3,0-.8.1-1.4.4-2,.3-.5.7-1,1.2-1.3s1.1-.6,1.7-.7c.6-.2,1.3-.3,2-.3.8-.1,1.5-.2,2-.2.5-.1.9-.2,1.1-.3.2-.2.3-.4.3-.7v-.1c0-.6-.2-1-.5-1.3-.4-.3-.9-.5-1.5-.5-.7,0-1.3.2-1.7.5-.4.3-.7.7-.8,1.1l-3.6-.3c.2-.9.5-1.6,1.1-2.2.5-.6,1.2-1.1,2.1-1.4.9-.3,1.8-.5,3-.5.8,0,1.5.1,2.2.3s1.4.5,1.9.8c.6.4,1,.9,1.3,1.5s.5,1.3.5,2.1v9.3h-.1Zm15.4,0h-3.9v-8.2c0-.9-.2-1.5-.7-2-.4-.5-1.1-.7-1.8-.7-.5,0-1,.1-1.4.3s-.7.6-.9,1c-.2.4-.3.9-.3,1.5v8.1h-3.9v-14h3.7v2.5h.2c.3-.8.8-1.5,1.6-1.9.7-.5,1.6-.7,2.7-.7,1,0,1.8.2,2.5.6.7.4,1.3,1,1.7,1.8.4.8.6,1.7.6,2.8v8.9h-.1Zm15.7,0h-3.8v-2.2h-.2c-.2.4-.4.8-.8,1.2-.3.4-.8.7-1.3.9s-1.2.4-1.9.4c-1.1,0-2-.3-2.9-.8-.9-.6-1.5-1.4-2-2.4-.5-1.1-.7-2.4-.7-4s.3-2.9.8-4,1.2-1.9,2.1-2.4,1.8-.8,2.8-.8c.8,0,1.4.1,2,.4.5.3,1,.6,1.3,1s.6.8.7,1.1h.1v-7h3.9v18.6h-.1Z"/><path d="m433.5,180.1c-.4-.3-1-.5-1.6-.5s-1.2.2-1.6.5-.8.8-1,1.4c-.2.6-.3,1.3-.3,2.1s.1,1.5.3,2.2c.2.6.6,1.1,1,1.5.4.3,1,.5,1.6.5s1.2-.2,1.6-.5.8-.8,1-1.5c.2-.6.4-1.3.4-2.2,0-.8-.1-1.6-.3-2.2-.3-.5-.7-.9-1.1-1.3Z"/></g></g></g></svg>