<?xml version="1.0" encoding="UTF-8"?><svg id="uuid-5b0ce45f-05bf-4176-b62b-18b5f6054f44" xmlns="http://www.w3.org/2000/svg" viewBox="0 0 449 200.3"><g id="uuid-af10667c-57a8-4a6a-8af5-f98988e7d4f5"><g><g><g><path d="m62.6,52.3l5.7-8.8v-14.1H21.4v15.7l6.6,7.2h34.6Z" style="fill:#d4d4d4;"/><path d="m30.5,22.3v-14.2L45.3,0l13.9,7.7v14.7" style="fill:#d4d4d4;"/><path d="m45,185.2c5.3,0,5,7.6,5,15.1h28.9L62.3,54.1H28L9.2,200.3h30.9c-.1-7.3,0-15.1,4.9-15.1Z" style="fill:#d4d4d4;"/><path d="m59.2,24.8h-28.7v2.8h28.8v-2.8h-.1Z" style="fill:#d4d4d4;"/><path d="m75.4,28.2l-12.9-9.5" style="fill:none; stroke:#d4d4d4; stroke-linecap:round; stroke-miterlimit:10; stroke-width:5px;"/><path d="m75.4,4l-12.9,9.5" style="fill:none; stroke:#d4d4d4; stroke-linecap:round; stroke-miterlimit:10; stroke-width:5px;"/><path d="m87.3,16.2h-24.3" style="fill:none; stroke:#d4d4d4; stroke-linecap:round; stroke-miterlimit:10; stroke-width:5px;"/><path d="m14.2,4l12.9,9.5" style="fill:none; stroke:#d4d4d4; stroke-linecap:round; stroke-miterlimit:10; stroke-width:5px;"/><path d="m14.2,28.2l12.9-9.5" style="fill:none; stroke:#d4d4d4; stroke-linecap:round; stroke-miterlimit:10; stroke-width:5px;"/><path d="m2.5,16.2h24.2" style="fill:none; stroke:#d4d4d4; stroke-linecap:round; stroke-miterlimit:10; stroke-width:5px;"/></g><path d="m103.1,147.5h-15l22.9-66.4h18.1l22.9,66.4h-15l-16.6-51.2h-.5l-16.8,51.2Zm-.9-26h35.5v11h-35.5v-11Zm92.3-21.2c-.3-2.6-1.4-4.6-3.3-6.1-2-1.4-4.6-2.2-8-2.2-2.3,0-4.2.3-5.8,1-1.6.6-2.8,1.5-3.6,2.6s-1.2,2.4-1.2,3.8c0,1.2.2,2.2.7,3.1.6.9,1.3,1.7,2.3,2.3,1,.6,2.1,1.2,3.4,1.7,1.3.5,2.6.8,4.1,1.2l6,1.4c2.9.6,5.6,1.5,8,2.6s4.5,2.4,6.3,4,3.1,3.4,4.1,5.6c1,2.1,1.5,4.6,1.5,7.4,0,4.1-1.1,7.6-3.1,10.6s-5,5.3-8.8,6.9c-3.8,1.6-8.4,2.4-13.8,2.4s-10-.8-14-2.5c-4-1.6-7-4.1-9.3-7.3-2.2-3.2-3.4-7.2-3.5-12h13.6c.2,2.2.8,4.1,1.9,5.6,1.1,1.5,2.7,2.6,4.6,3.3,1.9.7,4.1,1.1,6.5,1.1s4.4-.3,6.2-1,3.1-1.7,4.1-2.9,1.5-2.6,1.5-4.2c0-1.5-.4-2.7-1.3-3.8-.9-1-2.1-1.9-3.8-2.6s-3.7-1.4-6.1-1.9l-7.2-1.8c-5.6-1.4-10-3.5-13.3-6.4-3.2-2.9-4.9-6.8-4.8-11.7,0-4,1-7.5,3.2-10.5s5.2-5.3,9-7,8.1-2.5,13-2.5,9.2.8,12.9,2.5,6.6,4,8.6,7c2.1,3,3.1,6.5,3.2,10.4h-13.8v-.1Zm59.8,0c-.3-2.6-1.4-4.6-3.3-6.1-2-1.4-4.6-2.2-8-2.2-2.3,0-4.2.3-5.8,1-1.6.6-2.8,1.5-3.6,2.6s-1.2,2.4-1.2,3.8c0,1.2.2,2.2.7,3.1.6.9,1.3,1.7,2.3,2.3,1,.6,2.1,1.2,3.4,1.7,1.3.5,2.6.8,4.1,1.2l6,1.4c2.9.6,5.6,1.5,8,2.6,2.4,1.1,4.5,2.4,6.3,4s3.1,3.4,4.1,5.6c1,2.1,1.5,4.6,1.5,7.4,0,4.1-1.1,7.6-3.1,10.6s-5,5.3-8.8,6.9c-3.8,1.6-8.4,2.4-13.8,2.4s-10-.8-14-2.5c-4-1.6-7-4.1-9.3-7.3-2.2-3.2-3.4-7.2-3.5-12h13.4c.2,2.2.8,4.1,1.9,5.6,1.1,1.5,2.7,2.6,4.6,3.3,1.9.7,4.1,1.1,6.5,1.1s4.4-.3,6.2-1,3.1-1.7,4.1-2.9,1.5-2.6,1.5-4.2c0-1.5-.4-2.7-1.3-3.8-.9-1-2.1-1.9-3.8-2.6s-3.7-1.4-6.1-1.9l-7.2-1.8c-5.6-1.4-10-3.5-13.3-6.4-3.2-2.9-4.9-6.8-4.8-11.7,0-4,1-7.5,3.2-10.5s5.2-5.3,9-7,8.1-2.5,13-2.5,9.2.8,12.9,2.5,6.6,4,8.6,7c2.1,3,3.1,6.5,3.2,10.4h-13.6v-.1Zm23.8,47.2v-66.3h44.7v11.6h-30.7v15.8h28.4v11.6h-28.4v15.8h30.8v11.6h-44.8v-.1Zm53.4-54.7v-11.6h54.5v11.6h-20.3v54.8h-13.9v-54.8h-20.3Zm99.5,7.5c-.3-2.6-1.4-4.6-3.3-6.1-2-1.4-4.6-2.2-8-2.2-2.3,0-4.2.3-5.8,1-1.6.6-2.8,1.5-3.6,2.6-.8,1.1-1.2,2.4-1.2,3.8,0,1.2.2,2.2.7,3.1.6.9,1.3,1.7,2.3,2.3,1,.6,2.1,1.2,3.4,1.7s2.6.8,4.1,1.2l6,1.4c2.9.6,5.6,1.5,8,2.6s4.5,2.4,6.3,4,3.1,3.4,4.1,5.6c1,2.1,1.5,4.6,1.5,7.4,0,4.1-1.1,7.6-3.1,10.6s-5,5.3-8.8,6.9c-3.8,1.6-8.4,2.4-13.8,2.4s-10-.8-14-2.5c-4-1.6-7-4.1-9.3-7.3-2.2-3.2-3.4-7.2-3.5-12h13.6c.2,2.2.8,4.1,1.9,5.6s2.7,2.6,4.6,3.3,4.1,1.1,6.5,1.1,4.4-.3,6.2-1c1.8-.7,3.1-1.7,4.1-2.9s1.5-2.6,1.5-4.2c0-1.5-.4-2.7-1.3-3.8-.9-1-2.1-1.9-3.8-2.6-1.7-.7-3.7-1.4-6.1-1.9l-7.2-1.8c-5.6-1.4-10-3.5-13.3-6.4-3.2-2.9-4.9-6.8-4.8-11.7,0-4,1-7.5,3.2-10.5s5.2-5.3,9-7,8.1-2.5,13-2.5,9.2.8,12.9,2.5c3.7,1.7,6.6,4,8.6,7,2.1,3,3.1,6.5,3.2,10.4h-13.8v-.1Z" style="fill:#d4d4d4;"/><path d="m377.7,65.2v-1.7l8.1-9.1c1.1-1.2,1.9-2.2,2.6-3.1.6-.9,1.1-1.6,1.4-2.4.3-.7.4-1.5.4-2.2,0-.9-.2-1.8-.7-2.5-.4-.7-1-1.3-1.8-1.7s-1.6-.6-2.6-.6-1.9.2-2.7.7c-.8.4-1.4,1-1.8,1.8s-.6,1.6-.6,2.6h-2.2c0-1.4.3-2.6.9-3.7.6-1.1,1.5-1.9,2.6-2.5s2.4-.9,3.8-.9,2.6.3,3.7.9c1.1.6,1.9,1.4,2.5,2.4s.9,2.2.9,3.4c0,.9-.2,1.8-.5,2.7s-.9,1.8-1.6,2.9c-.8,1.1-1.9,2.3-3.2,3.9l-6.2,6.9v.2h12.3v2h-15.3Zm25.2.4c-1.8,0-3.2-.5-4.5-1.5-1.2-1-2.2-2.5-2.8-4.4-.7-1.9-1-4.2-1-6.9s.3-5,1-6.9,1.6-3.4,2.9-4.4c1.2-1,2.7-1.5,4.5-1.5,1.7,0,3.2.5,4.5,1.5,1.2,1,2.2,2.5,2.9,4.4.7,1.9,1,4.2,1,6.9s-.3,5-1,6.9-1.6,3.4-2.8,4.4c-1.4,1-2.9,1.5-4.7,1.5Zm0-2.1c1.9,0,3.4-.9,4.5-2.8,1.1-1.9,1.6-4.5,1.6-7.9,0-2.3-.2-4.2-.7-5.8s-1.2-2.8-2.1-3.7-2-1.3-3.3-1.3c-1.9,0-3.4.9-4.5,2.8-1.1,1.9-1.6,4.5-1.6,7.9,0,2.3.2,4.2.7,5.8s1.2,2.8,2.1,3.7c.9.9,2,1.3,3.3,1.3Zm9.9,1.7v-1.7l8.1-9.1c1.1-1.2,1.9-2.2,2.6-3.1.6-.9,1.1-1.6,1.4-2.4.3-.7.5-1.5.5-2.2,0-.9-.2-1.8-.7-2.5-.4-.7-1-1.3-1.8-1.7s-1.6-.6-2.6-.6-1.9.2-2.7.7c-.8.4-1.4,1-1.8,1.8s-.6,1.6-.6,2.6h-2.2c0-1.4.3-2.6.9-3.7.6-1.1,1.5-1.9,2.6-2.5s2.4-.9,3.8-.9,2.6.3,3.7.9c1.1.6,1.9,1.4,2.5,2.4s.9,2.2.9,3.4c0,.9-.2,1.8-.5,2.7s-.9,1.8-1.6,2.9c-.8,1.1-1.9,2.3-3.2,3.9l-6.2,6.9v.2h12.3v2h-15.4Zm16.3-5.3v-1.9l11.1-17.7h1.4v3.1h-1l-8.9,14.2v.2h14.6v2h-17.2v.1Zm11.6,5.3v-24.9h2.2v24.9h-2.2Z" style="fill:#d4d4d4;"/></g><g><path d="m402.93,184.69c-.26.05-.52.1-.78.14-.26.04-.5.07-.71.1-.46.07-.85.18-1.19.32-.34.15-.61.35-.79.6-.19.25-.28.56-.28.93,0,.54.19.95.58,1.23.39.28.88.42,1.48.42s1.08-.11,1.51-.34c.44-.23.78-.55,1.03-.94.25-.39.37-.84.37-1.34v-1.51c-.12.08-.29.15-.5.22-.21.06-.44.12-.7.18Z" style="fill:#d4d4d4;"/><path d="m381.8,180.13c-.44-.34-.97-.51-1.6-.51s-1.18.18-1.61.53c-.44.35-.77.84-.99,1.46-.23.62-.34,1.35-.34,2.17s.11,1.56.34,2.19c.23.63.56,1.12.99,1.48.44.35.98.53,1.61.53s1.16-.17,1.59-.52c.44-.35.77-.84,1-1.47.24-.63.36-1.37.36-2.21s-.12-1.58-.35-2.2c-.23-.62-.57-1.1-1-1.44Z" style="fill:#d4d4d4;"/><path d="m335.61,180.05c-.43-.38-.97-.56-1.61-.56s-1.2.19-1.64.56c-.44.38-.77.89-.99,1.54-.22.65-.33,1.39-.33,2.21s.11,1.56.33,2.21c.23.65.56,1.16.99,1.54.44.37.99.56,1.64.56s1.18-.19,1.61-.56c.43-.38.76-.89.98-1.54.22-.65.34-1.39.34-2.21s-.11-1.56-.34-2.21c-.22-.65-.54-1.16-.98-1.54Z" style="fill:#d4d4d4;"/><path d="m290.46,179.8c-.43-.25-.92-.38-1.49-.38s-1.11.14-1.57.42c-.45.27-.8.64-1.06,1.1-.23.42-.35.89-.38,1.4h5.87c0-.57-.12-1.07-.37-1.51-.24-.44-.58-.78-1.01-1.03Z" style="fill:#d4d4d4;"/><path d="m199.67,180.05c-.43-.38-.97-.56-1.61-.56s-1.2.19-1.64.56c-.44.38-.77.89-.99,1.54-.22.65-.33,1.39-.33,2.21s.11,1.56.33,2.21c.23.65.56,1.16.99,1.54.44.37.99.56,1.64.56s1.18-.19,1.61-.56c.43-.38.76-.89.98-1.54.22-.65.34-1.39.34-2.21s-.11-1.56-.34-2.21c-.22-.65-.54-1.16-.98-1.54Z" style="fill:#d4d4d4;"/><path d="m433.95,180.13c-.44-.34-.97-.51-1.6-.51s-1.18.18-1.61.53c-.44.35-.77.84-.99,1.46-.22.62-.34,1.35-.34,2.17s.11,1.56.34,2.19c.23.63.56,1.12.99,1.48.44.35.98.53,1.61.53s1.16-.17,1.59-.52c.44-.35.77-.84,1-1.47.24-.63.36-1.37.36-2.21s-.12-1.58-.35-2.2c-.23-.62-.57-1.1-1-1.44Z" style="fill:#d4d4d4;"/><path d="m72.3,162.5v37.8h376.7v-37.8H72.3Zm89.02,26.43c-.54.7-1.27,1.25-2.21,1.65-.93.39-2,.58-3.22.58-1.85,0-3.33-.39-4.43-1.18-1.09-.79-1.74-1.86-1.92-3.22l3.82-.2c.12.57.4,1.01.84,1.31.44.3,1.01.44,1.71.44s1.23-.13,1.64-.4c.42-.27.63-.62.64-1.05,0-.36-.15-.65-.45-.88-.29-.23-.74-.41-1.35-.54l-2.43-.49c-1.37-.28-2.39-.76-3.05-1.44-.66-.69-.99-1.56-.99-2.62,0-.91.24-1.7.73-2.36.49-.66,1.18-1.17,2.07-1.53.89-.36,1.94-.54,3.14-.54,1.77,0,3.16.38,4.18,1.14,1.02.76,1.62,1.79,1.79,3.1l-3.56.22c-.06-.31-.19-.59-.39-.83-.2-.25-.47-.45-.79-.6-.32-.15-.71-.23-1.16-.23-.6,0-1.11.13-1.52.39-.41.25-.62.59-.62,1.02,0,.34.13.63.4.86.27.23.73.42,1.38.56l2.54.52c1.36.28,2.38.74,3.05,1.37.67.63,1,1.46,1,2.48,0,.93-.27,1.75-.81,2.45Zm9.63,1.99c-.35.09-.78.14-1.29.16-.94.04-1.76-.09-2.46-.38-.7-.29-1.24-.74-1.63-1.35-.39-.61-.58-1.38-.57-2.31v-7.41h-1.92v-2.96h1.92v-3.41h3.89v3.41h2.64v2.96h-2.64v6.89c0,.36.05.65.16.85.11.2.26.34.46.42.2.08.43.12.69.12.18,0,.36-.02.55-.05.18-.04.32-.06.42-.08l.61,2.93c-.19.06-.47.13-.82.21Zm6.73-.9c-.2.33-.47.6-.79.81-.33.2-.69.3-1.09.3-.6,0-1.12-.22-1.55-.65-.43-.44-.64-.96-.64-1.57s.21-1.12.64-1.56c.43-.43.95-.65,1.55-.65s1.09.22,1.53.65c.44.43.66.95.66,1.56,0,.41-.1.78-.31,1.12Zm11.43,1.56c0,1.1-.21,1.99-.64,2.67-.43.68-1.04,1.18-1.83,1.49-.79.31-1.74.47-2.84.47-.13,0-.26,0-.38,0-.13,0-.26,0-.4,0v-3.08c.1,0,.19,0,.27,0,.07,0,.15,0,.24,0,.63,0,1.06-.14,1.31-.41.26-.27.38-.67.38-1.2v-14.86h3.89v14.93Zm-.47-17.34c-.41.39-.9.58-1.49.58s-1.06-.19-1.48-.58c-.41-.4-.62-.87-.62-1.42s.21-1.01.62-1.4c.41-.39.91-.59,1.48-.59s1.08.2,1.49.59c.41.39.62.85.62,1.4s-.21,1.02-.62,1.42Zm15.45,13.43c-.56,1.1-1.36,1.96-2.39,2.57-1.03.61-2.25.92-3.67.92s-2.64-.31-3.68-.92c-1.03-.62-1.82-1.48-2.38-2.57-.56-1.1-.84-2.39-.84-3.84s.28-2.75.84-3.85c.56-1.1,1.35-1.96,2.38-2.57,1.03-.62,2.26-.93,3.68-.93s2.64.31,3.67.93c1.03.61,1.83,1.47,2.39,2.57.56,1.1.84,2.38.84,3.85s-.28,2.74-.84,3.84Zm15.82,3.21h-3.89v-8.35c0-.88-.21-1.56-.66-2.05-.44-.49-1.05-.73-1.84-.73-.53,0-1,.11-1.4.34-.4.23-.72.56-.95,1-.22.43-.34.95-.35,1.56v8.22h-3.89v-18.96h3.78v7.25h.16c.32-.84.83-1.5,1.53-1.97.7-.48,1.59-.72,2.65-.72.97,0,1.82.22,2.54.65.73.43,1.29,1.04,1.7,1.84.41.8.61,1.75.6,2.86v9.06Zm15.46,0h-3.89v-8.35c0-.87-.21-1.55-.66-2.04-.44-.49-1.06-.74-1.83-.74-.52,0-.98.11-1.39.34-.4.23-.71.56-.93,1-.22.43-.33.95-.34,1.56v8.22h-3.89v-14.22h3.7v2.51h.16c.31-.83.83-1.48,1.56-1.96.73-.49,1.61-.73,2.65-.73.97,0,1.82.22,2.54.65.72.43,1.29,1.05,1.69,1.85.4.8.6,1.75.6,2.85v9.06Zm4.62-13.55c-.36.52-.75.96-1.18,1.32l-1.71-1.03c.3-.49.57-1.03.8-1.62.24-.59.36-1.28.36-2.06v-2.02h2.92v2c0,.57-.11,1.15-.33,1.74-.21.59-.5,1.14-.86,1.67Zm12.67,11.6c-.54.7-1.27,1.25-2.21,1.65-.93.39-2,.58-3.22.58-1.85,0-3.33-.39-4.43-1.18-1.09-.79-1.74-1.86-1.92-3.22l3.82-.2c.12.57.4,1.01.84,1.31.44.3,1.01.44,1.71.44s1.23-.13,1.64-.4c.42-.27.63-.62.64-1.05,0-.36-.15-.65-.45-.88-.29-.23-.74-.41-1.35-.54l-2.43-.49c-1.37-.28-2.39-.76-3.06-1.44-.66-.69-.99-1.56-.99-2.62,0-.91.24-1.7.73-2.36.49-.66,1.18-1.17,2.07-1.53.89-.36,1.94-.54,3.14-.54,1.77,0,3.16.38,4.18,1.14,1.02.76,1.62,1.79,1.79,3.1l-3.56.22c-.06-.31-.19-.59-.39-.83-.2-.25-.47-.45-.79-.6-.32-.15-.71-.23-1.16-.23-.6,0-1.11.13-1.52.39-.41.25-.62.59-.62,1.02,0,.34.13.63.4.86.27.23.73.42,1.38.56l2.54.52c1.36.28,2.38.74,3.05,1.37.67.63,1,1.46,1,2.48,0,.93-.27,1.75-.81,2.45Zm6.87.38c-.08.81-.23,1.63-.46,2.44-.22.81-.45,1.55-.69,2.21-.24.66-.43,1.18-.58,1.56h-2.52c.09-.36.22-.87.37-1.53.16-.65.31-1.38.45-2.19s.23-1.63.26-2.47l.05-1.04h3.21l-.1,1.02Zm20.61,1.57h-3.89v-8.35c0-.87-.21-1.55-.66-2.04-.44-.49-1.06-.74-1.83-.74-.52,0-.99.11-1.39.34-.4.23-.71.56-.93,1-.22.43-.33.95-.34,1.56v8.22h-3.89v-14.22h3.7v2.51h.16c.31-.83.83-1.48,1.56-1.96.73-.49,1.61-.73,2.65-.73.97,0,1.82.22,2.54.65.72.43,1.29,1.05,1.69,1.85.4.8.6,1.75.6,2.85v9.06Zm15.36-6.1h-9.54c0,.71.13,1.32.38,1.83.26.51.63.91,1.1,1.19.47.28,1.04.42,1.69.42.43,0,.83-.06,1.19-.19.36-.12.67-.31.92-.56.26-.25.45-.55.58-.91l3.59.24c-.18.88-.56,1.64-1.12,2.3-.56.65-1.28,1.15-2.17,1.52-.88.36-1.9.54-3.06.54-1.44,0-2.68-.3-3.72-.89-1.03-.6-1.83-1.44-2.39-2.54-.56-1.1-.84-2.4-.84-3.9s.28-2.75.84-3.85c.56-1.1,1.35-1.97,2.36-2.58,1.02-.62,2.22-.93,3.59-.93.92,0,1.78.15,2.58.45.8.3,1.5.74,2.1,1.34.6.6,1.07,1.35,1.4,2.26.33.9.5,1.96.5,3.17v1.08Zm17.89,6.1h-4.11l-2.41-8.94h-.17l-2.41,8.94h-4.1l-3.81-14.22h3.93l2.17,9.55h.13l2.26-9.55h3.86l2.3,9.5h.12l2.13-9.5h3.92l-3.8,14.22Zm12.9-14.22v2.96h-2.79v11.26h-3.88v-11.26h-1.98v-2.96h1.98v-1.03c0-1.03.2-1.89.59-2.56.4-.68.95-1.19,1.64-1.53.69-.34,1.48-.51,2.36-.51.6,0,1.14.05,1.63.14.5.09.87.18,1.11.25l-.69,2.96c-.15-.05-.34-.1-.57-.14-.22-.04-.44-.06-.67-.06-.57,0-.97.14-1.19.41-.22.27-.34.64-.34,1.12v.95h2.79Zm13.74,11.01c-.56,1.1-1.36,1.96-2.39,2.57-1.03.61-2.25.92-3.67.92s-2.64-.31-3.68-.92c-1.03-.62-1.82-1.48-2.38-2.57-.56-1.1-.84-2.39-.84-3.84s.28-2.75.84-3.85c.56-1.1,1.35-1.96,2.38-2.57,1.03-.62,2.26-.93,3.68-.93s2.64.31,3.67.93c1.03.61,1.83,1.47,2.39,2.57.56,1.1.84,2.38.84,3.85s-.28,2.74-.84,3.84Zm15.72,3.21h-3.73v-2.58h-.15c-.32.83-.84,1.5-1.58,2.01-.73.51-1.62.76-2.67.76-.94,0-1.76-.22-2.47-.65-.71-.43-1.27-1.05-1.67-1.84-.4-.8-.6-1.75-.6-2.86v-9.06h3.89v8.35c0,.84.23,1.5.67,1.99.44.49,1.02.73,1.76.73.47,0,.91-.11,1.31-.32.41-.22.74-.55.98-.98.26-.43.38-.97.37-1.6v-8.17h3.89v14.22Zm15.51,0h-3.89v-8.35c0-.87-.21-1.55-.66-2.04-.44-.49-1.06-.74-1.83-.74-.52,0-.99.11-1.39.34-.4.23-.71.56-.93,1-.22.43-.33.95-.34,1.56v8.22h-3.89v-14.22h3.7v2.51h.16c.31-.83.83-1.48,1.56-1.96.73-.49,1.61-.73,2.65-.73.97,0,1.82.22,2.54.65.72.43,1.29,1.05,1.69,1.85.4.8.6,1.75.6,2.85v9.06Zm15.68,0h-3.83v-2.28h-.16c-.18.4-.44.79-.78,1.18-.33.38-.76.7-1.29.95-.52.25-1.16.38-1.92.38-1.06,0-2.03-.28-2.89-.83-.86-.56-1.54-1.39-2.04-2.47-.5-1.09-.75-2.43-.75-4.02s.26-2.98.77-4.06c.52-1.09,1.2-1.9,2.06-2.44.86-.54,1.81-.81,2.84-.81.78,0,1.44.14,1.96.41.53.27.95.6,1.28,1,.33.4.58.78.75,1.17h.12v-7.13h3.88v18.96Zm6.57,0h-3.89v-18.96h3.89v18.96Zm14.48,0h-3.68v-1.97h-.11c-.22.44-.53.84-.9,1.18-.38.33-.83.6-1.36.79-.53.19-1.14.28-1.83.28-.89,0-1.69-.16-2.39-.47-.7-.32-1.25-.79-1.66-1.42-.4-.63-.6-1.41-.6-2.35,0-.79.14-1.45.43-1.99.29-.54.67-.97,1.17-1.3.49-.33,1.05-.57,1.68-.74.63-.17,1.29-.28,1.99-.35.81-.09,1.47-.17,1.97-.24.5-.08.86-.2,1.09-.35.23-.15.34-.38.34-.69v-.06c0-.59-.18-1.04-.55-1.36-.36-.32-.87-.48-1.53-.48-.7,0-1.26.16-1.67.47-.41.31-.69.7-.82,1.17l-3.59-.3c.18-.86.54-1.61,1.08-2.24.54-.64,1.23-1.12,2.07-1.46.85-.35,1.84-.52,2.96-.52.78,0,1.52.09,2.23.28.72.19,1.35.47,1.91.86.56.39,1,.89,1.32,1.5.32.6.48,1.33.48,2.18v9.59Zm15.42,0h-3.89v-8.35c0-.87-.21-1.55-.66-2.04-.44-.49-1.05-.74-1.83-.74-.52,0-.99.11-1.39.34-.4.23-.7.56-.93,1-.22.43-.33.95-.34,1.56v8.22h-3.89v-14.22h3.7v2.51h.16c.31-.83.83-1.48,1.56-1.96.73-.49,1.61-.73,2.65-.73.97,0,1.82.22,2.54.65.72.43,1.29,1.05,1.69,1.85.4.8.6,1.75.6,2.85v9.06Zm15.68,0h-3.83v-2.28h-.16c-.18.4-.44.79-.78,1.18-.33.38-.76.7-1.29.95-.52.25-1.16.38-1.91.38-1.06,0-2.03-.28-2.89-.83-.86-.56-1.54-1.39-2.04-2.47-.5-1.09-.75-2.43-.75-4.02s.26-2.98.78-4.06c.52-1.09,1.2-1.9,2.06-2.44.86-.54,1.81-.81,2.84-.81.78,0,1.44.14,1.96.41.53.27.95.6,1.28,1,.33.4.58.78.75,1.17h.12v-7.13h3.88v18.96Z" style="fill:#d4d4d4;"/></g></g></g></svg>