<?xml version="1.0" encoding="UTF-8"?><svg id="uuid-34792203-625c-4b41-939d-13386b0e28fd" xmlns="http://www.w3.org/2000/svg" viewBox="0 0 452.3 201.6"><g id="uuid-f0eb76cc-039c-462b-bbb3-acd4ded6a35f"><g><g><path d="m62.6,52.3l5.7-8.8v-14.1H21.4v15.7l6.6,7.2h34.6Z" style="fill:#d4d4d4;"/><path d="m30.5,22.3v-14.2L45.3,0l13.9,7.7v14.7" style="fill:#d4d4d4;"/><path d="m45,185.2c5.3,0,5,7.6,5,15.1h28.9L62.3,54.1H28L9.2,200.3h30.9c-.1-7.3,0-15.1,4.9-15.1Z" style="fill:#d4d4d4;"/><path d="m59.2,24.8h-28.7v2.8h28.8v-2.8h-.1Z" style="fill:#d4d4d4;"/><path d="m75.4,28.2l-12.9-9.5" style="fill:none; stroke:#d4d4d4; stroke-linecap:round; stroke-miterlimit:10; stroke-width:5px;"/><path d="m75.4,4l-12.9,9.5" style="fill:none; stroke:#d4d4d4; stroke-linecap:round; stroke-miterlimit:10; stroke-width:5px;"/><path d="m87.3,16.2h-24.3" style="fill:none; stroke:#d4d4d4; stroke-linecap:round; stroke-miterlimit:10; stroke-width:5px;"/><path d="m14.2,4l12.9,9.5" style="fill:none; stroke:#d4d4d4; stroke-linecap:round; stroke-miterlimit:10; stroke-width:5px;"/><path d="m14.2,28.2l12.9-9.5" style="fill:none; stroke:#d4d4d4; stroke-linecap:round; stroke-miterlimit:10; stroke-width:5px;"/><path d="m2.5,16.2h24.2" style="fill:none; stroke:#d4d4d4; stroke-linecap:round; stroke-miterlimit:10; stroke-width:5px;"/></g><path d="m109.1,200.5h-15l22.9-66.4h18.1l22.9,66.4h-15l-16.6-51.2h-.5l-16.8,51.2Zm-.9-26h35.5v11h-35.5v-11Zm92.3-21.2c-.3-2.6-1.4-4.6-3.3-6.1-2-1.4-4.6-2.2-8-2.2-2.3,0-4.2.3-5.8,1-1.6.6-2.8,1.5-3.6,2.6s-1.2,2.4-1.2,3.8c0,1.2.2,2.2.7,3.1.6.9,1.3,1.7,2.3,2.3,1,.6,2.1,1.2,3.4,1.7,1.3.5,2.6.8,4.1,1.2l6,1.4c2.9.6,5.6,1.5,8,2.6s4.5,2.4,6.3,4,3.1,3.4,4.1,5.6c1,2.1,1.5,4.6,1.5,7.4,0,4.1-1.1,7.6-3.1,10.6s-5,5.3-8.8,6.9c-3.8,1.6-8.4,2.4-13.8,2.4s-10-.8-14-2.5c-4-1.6-7-4.1-9.3-7.3-2.2-3.2-3.4-7.2-3.5-12h13.6c.2,2.2.8,4.1,1.9,5.6,1.1,1.5,2.7,2.6,4.6,3.3,1.9.7,4.1,1.1,6.5,1.1s4.4-.3,6.2-1,3.1-1.7,4.1-2.9,1.5-2.6,1.5-4.2c0-1.5-.4-2.7-1.3-3.8-.9-1-2.1-1.9-3.8-2.6s-3.7-1.4-6.1-1.9l-7.2-1.8c-5.6-1.4-10-3.5-13.3-6.4-3.2-2.9-4.9-6.8-4.8-11.7,0-4,1-7.5,3.2-10.5s5.2-5.3,9-7,8.1-2.5,13-2.5,9.2.8,12.9,2.5,6.6,4,8.6,7c2.1,3,3.1,6.5,3.2,10.4h-13.8v-.1Zm59.8,0c-.3-2.6-1.4-4.6-3.3-6.1-2-1.4-4.6-2.2-8-2.2-2.3,0-4.2.3-5.8,1-1.6.6-2.8,1.5-3.6,2.6s-1.2,2.4-1.2,3.8c0,1.2.2,2.2.7,3.1.6.9,1.3,1.7,2.3,2.3,1,.6,2.1,1.2,3.4,1.7,1.3.5,2.6.8,4.1,1.2l6,1.4c2.9.6,5.6,1.5,8,2.6,2.4,1.1,4.5,2.4,6.3,4s3.1,3.4,4.1,5.6c1,2.1,1.5,4.6,1.5,7.4,0,4.1-1.1,7.6-3.1,10.6s-5,5.3-8.8,6.9c-3.8,1.6-8.4,2.4-13.8,2.4s-10-.8-14-2.5c-4-1.6-7-4.1-9.3-7.3-2.2-3.2-3.4-7.2-3.5-12h13.4c.2,2.2.8,4.1,1.9,5.6,1.1,1.5,2.7,2.6,4.6,3.3,1.9.7,4.1,1.1,6.5,1.1s4.4-.3,6.2-1,3.1-1.7,4.1-2.9,1.5-2.6,1.5-4.2c0-1.5-.4-2.7-1.3-3.8-.9-1-2.1-1.9-3.8-2.6s-3.7-1.4-6.1-1.9l-7.2-1.8c-5.6-1.4-10-3.5-13.3-6.4-3.2-2.9-4.9-6.8-4.8-11.7,0-4,1-7.5,3.2-10.5s5.2-5.3,9-7,8.1-2.5,13-2.5,9.2.8,12.9,2.5,6.6,4,8.6,7c2.1,3,3.1,6.5,3.2,10.4h-13.6v-.1Zm23.8,47.2v-66.3h44.7v11.6h-30.7v15.8h28.4v11.6h-28.4v15.8h30.8v11.6h-44.8v-.1Zm53.4-54.7v-11.6h54.5v11.6h-20.3v54.8h-13.9v-54.8h-20.3Zm99.5,7.5c-.3-2.6-1.4-4.6-3.3-6.1-2-1.4-4.6-2.2-8-2.2-2.3,0-4.2.3-5.8,1-1.6.6-2.8,1.5-3.6,2.6-.8,1.1-1.2,2.4-1.2,3.8,0,1.2.2,2.2.7,3.1.6.9,1.3,1.7,2.3,2.3,1,.6,2.1,1.2,3.4,1.7s2.6.8,4.1,1.2l6,1.4c2.9.6,5.6,1.5,8,2.6s4.5,2.4,6.3,4,3.1,3.4,4.1,5.6c1,2.1,1.5,4.6,1.5,7.4,0,4.1-1.1,7.6-3.1,10.6s-5,5.3-8.8,6.9c-3.8,1.6-8.4,2.4-13.8,2.4s-10-.8-14-2.5c-4-1.6-7-4.1-9.3-7.3-2.2-3.2-3.4-7.2-3.5-12h13.6c.2,2.2.8,4.1,1.9,5.6s2.7,2.6,4.6,3.3,4.1,1.1,6.5,1.1,4.4-.3,6.2-1c1.8-.7,3.1-1.7,4.1-2.9s1.5-2.6,1.5-4.2c0-1.5-.4-2.7-1.3-3.8-.9-1-2.1-1.9-3.8-2.6-1.7-.7-3.7-1.4-6.1-1.9l-7.2-1.8c-5.6-1.4-10-3.5-13.3-6.4-3.2-2.9-4.9-6.8-4.8-11.7,0-4,1-7.5,3.2-10.5s5.2-5.3,9-7,8.1-2.5,13-2.5,9.2.8,12.9,2.5c3.7,1.7,6.6,4,8.6,7,2.1,3,3.1,6.5,3.2,10.4h-13.8v-.1Z" style="fill:#d4d4d4;"/><path d="m383.7,118.2v-1.7l8.1-9.1c1.1-1.2,1.9-2.2,2.6-3.1.6-.9,1.1-1.6,1.4-2.4.3-.7.4-1.5.4-2.2,0-.9-.2-1.8-.7-2.5-.4-.7-1-1.3-1.8-1.7s-1.6-.6-2.6-.6-1.9.2-2.7.7c-.8.4-1.4,1-1.8,1.8s-.6,1.6-.6,2.6h-2.2c0-1.4.3-2.6.9-3.7.6-1.1,1.5-1.9,2.6-2.5s2.4-.9,3.8-.9,2.6.3,3.7.9c1.1.6,1.9,1.4,2.5,2.4s.9,2.2.9,3.4c0,.9-.2,1.8-.5,2.7s-.9,1.8-1.6,2.9c-.8,1.1-1.9,2.3-3.2,3.9l-6.2,6.9v.2h12.3v2h-15.3Zm25.2.4c-1.8,0-3.2-.5-4.5-1.5-1.2-1-2.2-2.5-2.8-4.4-.7-1.9-1-4.2-1-6.9s.3-5,1-6.9,1.6-3.4,2.9-4.4c1.2-1,2.7-1.5,4.5-1.5,1.7,0,3.2.5,4.5,1.5,1.2,1,2.2,2.5,2.9,4.4.7,1.9,1,4.2,1,6.9s-.3,5-1,6.9-1.6,3.4-2.8,4.4c-1.4,1-2.9,1.5-4.7,1.5Zm0-2.1c1.9,0,3.4-.9,4.5-2.8,1.1-1.9,1.6-4.5,1.6-7.9,0-2.3-.2-4.2-.7-5.8s-1.2-2.8-2.1-3.7-2-1.3-3.3-1.3c-1.9,0-3.4.9-4.5,2.8-1.1,1.9-1.6,4.5-1.6,7.9,0,2.3.2,4.2.7,5.8s1.2,2.8,2.1,3.7c.9.9,2,1.3,3.3,1.3Zm9.9,1.7v-1.7l8.1-9.1c1.1-1.2,1.9-2.2,2.6-3.1.6-.9,1.1-1.6,1.4-2.4.3-.7.5-1.5.5-2.2,0-.9-.2-1.8-.7-2.5-.4-.7-1-1.3-1.8-1.7s-1.6-.6-2.6-.6-1.9.2-2.7.7c-.8.4-1.4,1-1.8,1.8s-.6,1.6-.6,2.6h-2.2c0-1.4.3-2.6.9-3.7.6-1.1,1.5-1.9,2.6-2.5s2.4-.9,3.8-.9,2.6.3,3.7.9c1.1.6,1.9,1.4,2.5,2.4s.9,2.2.9,3.4c0,.9-.2,1.8-.5,2.7s-.9,1.8-1.6,2.9c-.8,1.1-1.9,2.3-3.2,3.9l-6.2,6.9v.2h12.3v2h-15.4Zm16.3-5.3v-1.9l11.1-17.7h1.4v3.1h-1l-8.9,14.2v.2h14.6v2h-17.2v.1Zm11.6,5.3v-24.9h2.2v24.9h-2.2Z" style="fill:#d4d4d4;"/></g></g></svg>