<?xml version="1.0" encoding="UTF-8"?><svg id="uuid-a9259b96-cae1-4c5f-99a2-5fbb5474ed94" xmlns="http://www.w3.org/2000/svg" xmlns:xlink="http://www.w3.org/1999/xlink" viewBox="0 0 206.27 72"><defs><linearGradient id="uuid-7b7c682f-1b81-4cae-93b0-28b4f23247f9" x1="89.1" y1="-306.85" x2="140.02" y2="-255.94" gradientTransform="translate(-245.39 -78.56) rotate(90)" gradientUnits="userSpaceOnUse"><stop offset="0" stop-color="#73bad1"/><stop offset=".14" stop-color="#6db7cf"/><stop offset=".33" stop-color="#5cafc9"/><stop offset=".54" stop-color="#41a1c0"/><stop offset=".77" stop-color="#1c8fb4"/><stop offset=".79" stop-color="#1a8eb4"/></linearGradient><linearGradient id="uuid-13e04c3a-2b0d-4c39-8dd1-93665660324e" x1="36" y1="55.86" x2="36" y2="14.78" gradientUnits="userSpaceOnUse"><stop offset="0" stop-color="#80c0d5"/><stop offset=".13" stop-color="#7abdd3"/><stop offset=".31" stop-color="#69b5cd"/><stop offset=".51" stop-color="#4ea7c5"/><stop offset=".72" stop-color="#2995b8"/><stop offset=".8" stop-color="#1a8eb4"/></linearGradient></defs><g id="uuid-8ab1985c-eab3-40f4-9ecc-d60ccb053582"><path d="M82.1,30.45l-.78,2.58h-1.71l2.92-9.1h2.12l2.96,9.1h-1.78l-.82-2.58h-2.89ZM84.71,29.2l-.71-2.24c-.18-.55-.32-1.17-.46-1.7h-.03c-.13.53-.27,1.16-.43,1.7l-.7,2.24h2.33Z" style="stroke-width:0px;"/><path d="M88.47,31.49c.36.23,1.08.49,1.67.49.73,0,1.05-.31,1.05-.74s-.27-.66-1.08-.96c-1.28-.43-1.81-1.13-1.81-1.92,0-1.16.96-2.05,2.48-2.05.73,0,1.36.18,1.75.39l-.34,1.16c-.27-.16-.81-.38-1.39-.38s-.92.3-.92.7.31.61,1.15.92c1.2.42,1.74,1.03,1.75,2,0,1.2-.93,2.07-2.67,2.07-.8,0-1.51-.19-2-.46l.34-1.21Z" style="stroke-width:0px;"/><path d="M93.9,31.49c.37.23,1.08.49,1.67.49.73,0,1.05-.31,1.05-.74s-.27-.66-1.08-.96c-1.28-.43-1.81-1.13-1.81-1.92,0-1.16.96-2.05,2.48-2.05.73,0,1.36.18,1.75.39l-.34,1.16c-.27-.16-.81-.38-1.39-.38s-.92.3-.92.7.31.61,1.15.92c1.2.42,1.74,1.03,1.75,2,0,1.2-.93,2.07-2.67,2.07-.8,0-1.51-.19-2-.46l.34-1.21Z" style="stroke-width:0px;"/><path d="M102.27,33.18c-1.85,0-3.29-1.27-3.29-3.39s1.42-3.48,3.4-3.48,3.27,1.38,3.27,3.37c0,2.42-1.7,3.5-3.36,3.5h-.01ZM102.32,31.98c.95,0,1.61-.92,1.61-2.25,0-1.03-.46-2.21-1.59-2.21s-1.65,1.15-1.65,2.24c0,1.27.63,2.23,1.62,2.23h.01Z" style="stroke-width:0px;"/><path d="M111.64,32.83c-.35.16-1.04.34-1.86.34-2.05,0-3.39-1.32-3.39-3.36s1.35-3.5,3.66-3.5c.61,0,1.23.14,1.61.3l-.3,1.26c-.27-.14-.66-.26-1.26-.26-1.27,0-2.02.93-2.01,2.13,0,1.35.88,2.12,2.01,2.12.57,0,.99-.12,1.31-.26l.23,1.23Z" style="stroke-width:0px;"/><path d="M113.49,25.51c-.55,0-.92-.4-.92-.89,0-.51.38-.9.93-.9s.92.39.93.9c0,.49-.36.89-.93.89h-.01ZM112.66,33.03v-6.57h1.66v6.57h-1.66Z" style="stroke-width:0px;"/><path d="M121.02,31.45c0,.59.03,1.17.11,1.58h-1.5l-.12-.73h-.04c-.39.51-1.08.88-1.94.88-1.32,0-2.07-.96-2.07-1.96,0-1.65,1.47-2.5,3.9-2.48v-.11c0-.43-.17-1.15-1.34-1.15-.65,0-1.32.2-1.77.49l-.32-1.08c.49-.3,1.34-.58,2.38-.58,2.11,0,2.71,1.34,2.71,2.78v2.36ZM119.4,29.82c-1.17-.01-2.29.23-2.29,1.23,0,.65.42.94.95.94.67,0,1.15-.43,1.31-.9.04-.12.04-.24.04-.36v-.9Z" style="stroke-width:0px;"/><path d="M124.4,24.77v1.69h1.58v1.24h-1.58v2.89c0,.81.22,1.21.85,1.21.3,0,.46-.01.65-.07l.03,1.26c-.24.09-.69.18-1.2.18-.62,0-1.12-.2-1.43-.54-.36-.38-.53-.99-.53-1.85v-3.08h-.93v-1.24h.93v-1.23l1.63-.46Z" style="stroke-width:0px;"/><path d="M127.85,25.51c-.55,0-.92-.4-.92-.89,0-.51.38-.9.93-.9s.92.39.93.9c0,.49-.36.89-.93.89h-.01ZM127.03,33.03v-6.57h1.66v6.57h-1.66Z" style="stroke-width:0px;"/><path d="M133.16,33.18c-1.85,0-3.29-1.27-3.29-3.39s1.42-3.48,3.4-3.48,3.27,1.38,3.27,3.37c0,2.42-1.7,3.5-3.36,3.5h-.01ZM133.21,31.98c.95,0,1.61-.92,1.61-2.25,0-1.03-.46-2.21-1.59-2.21s-1.65,1.15-1.65,2.24c0,1.27.63,2.23,1.62,2.23h.01Z" style="stroke-width:0px;"/><path d="M137.69,28.41c0-.76-.03-1.39-.05-1.96h1.44l.08.99h.04c.3-.51,1.01-1.13,2.11-1.13,1.15,0,2.34.74,2.34,2.82v3.9h-1.66v-3.71c0-.95-.35-1.66-1.25-1.66-.66,0-1.12.47-1.3.97-.05.13-.08.34-.08.53v3.87h-1.66v-4.62Z" style="stroke-width:0px;"/><path d="M147.99,33.03v-5.33h-.89v-1.24h.89v-.28c0-.85.23-1.7.8-2.24.49-.46,1.15-.63,1.71-.63.45,0,.8.08,1.05.16l-.11,1.28c-.19-.07-.41-.12-.72-.12-.82,0-1.09.69-1.09,1.5v.34h1.45v1.24h-1.43v5.33h-1.66Z" style="stroke-width:0px;"/><path d="M154.64,33.18c-1.85,0-3.29-1.27-3.29-3.39s1.42-3.48,3.4-3.48,3.27,1.38,3.27,3.37c0,2.42-1.7,3.5-3.36,3.5h-.01ZM154.69,31.98c.95,0,1.61-.92,1.61-2.25,0-1.03-.46-2.21-1.59-2.21s-1.65,1.15-1.65,2.24c0,1.27.63,2.23,1.62,2.23h.01Z" style="stroke-width:0px;"/><path d="M159.17,28.58c0-.89-.01-1.54-.05-2.12h1.43l.07,1.24h.04c.32-.92,1.09-1.39,1.81-1.39.16,0,.26.01.39.04v1.55c-.15-.03-.3-.04-.5-.04-.78,0-1.34.5-1.49,1.26-.03.15-.04.32-.04.5v3.42h-1.66v-4.46Z" style="stroke-width:0px;"/><path d="M86.8,47.76c-.39.19-1.26.4-2.36.4-2.89,0-4.64-1.81-4.64-4.58,0-3,2.09-4.79,4.87-4.79,1.09,0,1.86.22,2.2.39l-.35,1.32c-.43-.19-1.04-.35-1.78-.35-1.85,0-3.19,1.16-3.19,3.35,0,2,1.16,3.27,3.17,3.27.66,0,1.36-.13,1.81-.32l.27,1.31Z" style="stroke-width:0px;"/><path d="M90.61,48.18c-1.85,0-3.29-1.27-3.29-3.39s1.42-3.48,3.4-3.48,3.27,1.38,3.27,3.37c0,2.42-1.7,3.5-3.36,3.5h-.01ZM90.66,46.98c.95,0,1.61-.92,1.61-2.25,0-1.03-.46-2.21-1.59-2.21s-1.65,1.15-1.65,2.24c0,1.27.63,2.23,1.62,2.23h.01Z" style="stroke-width:0px;"/><path d="M95.14,43.41c0-.76-.03-1.39-.05-1.96h1.42l.08.97h.04c.31-.51.9-1.12,2.03-1.12.86,0,1.54.49,1.82,1.21h.03c.23-.36.5-.63.8-.82.38-.26.8-.39,1.35-.39,1.08,0,2.19.74,2.19,2.85v3.87h-1.62v-3.63c0-1.09-.38-1.74-1.17-1.74-.57,0-.99.41-1.16.88-.05.15-.08.36-.08.55v3.94h-1.62v-3.81c0-.92-.37-1.57-1.13-1.57-.62,0-1.04.49-1.2.93-.05.18-.08.36-.08.55v3.89h-1.62v-4.62Z" style="stroke-width:0px;"/><path d="M106.39,43.64c0-.86-.03-1.57-.05-2.19h1.46l.08,1.01h.03c.49-.74,1.25-1.16,2.25-1.16,1.51,0,2.77,1.3,2.77,3.35,0,2.38-1.5,3.52-3,3.52-.82,0-1.51-.35-1.85-.88h-.03v3.4h-1.66v-7.06ZM108.05,45.28c0,.16.01.31.04.46.18.67.76,1.16,1.47,1.16,1.05,0,1.67-.88,1.67-2.17,0-1.16-.57-2.11-1.63-2.11-.69,0-1.32.5-1.5,1.23-.03.13-.05.28-.05.42v1.01Z" style="stroke-width:0px;"/><path d="M119.97,46.06c0,.78.03,1.43.05,1.97h-1.44l-.08-.99h-.04c-.28.46-.93,1.13-2.12,1.13s-2.28-.72-2.28-2.86v-3.86h1.66v3.58c0,1.09.35,1.8,1.23,1.8.67,0,1.11-.46,1.27-.89.07-.13.09-.32.09-.51v-3.97h1.66v4.6Z" style="stroke-width:0px;"/><path d="M123.46,39.77v1.69h1.58v1.24h-1.58v2.89c0,.81.22,1.21.85,1.21.3,0,.46-.01.65-.07l.03,1.26c-.24.09-.69.17-1.2.17-.62,0-1.12-.2-1.43-.54-.36-.38-.53-.99-.53-1.85v-3.08h-.93v-1.24h.93v-1.23l1.63-.46Z" style="stroke-width:0px;"/><path d="M126.92,40.51c-.55,0-.92-.41-.92-.89,0-.51.38-.91.93-.91s.92.39.93.91c0,.49-.36.89-.93.89h-.01ZM126.1,48.03v-6.57h1.66v6.57h-1.66Z" style="stroke-width:0px;"/><path d="M129.35,43.41c0-.76-.03-1.39-.05-1.96h1.44l.08.99h.04c.3-.51,1.01-1.13,2.11-1.13,1.15,0,2.34.74,2.34,2.82v3.9h-1.66v-3.71c0-.94-.35-1.66-1.25-1.66-.66,0-1.12.47-1.3.97-.05.14-.08.34-.08.53v3.87h-1.66v-4.62Z" style="stroke-width:0px;"/><path d="M142.82,47.07c0,1.38-.28,2.36-.97,2.98-.67.61-1.63.8-2.54.8-.84,0-1.73-.19-2.3-.53l.37-1.26c.42.24,1.12.5,1.92.5,1.08,0,1.89-.57,1.89-1.98v-.57h-.03c-.38.58-1.04.97-1.92.97-1.63,0-2.79-1.35-2.79-3.21,0-2.16,1.4-3.47,2.98-3.47,1.01,0,1.59.49,1.9,1.03h.03l.07-.88h1.44c-.03.45-.05.99-.05,1.89v3.73ZM141.16,44.09c0-.16-.01-.31-.05-.45-.18-.61-.65-1.07-1.35-1.07-.93,0-1.62.81-1.62,2.15,0,1.12.57,2.03,1.61,2.03.62,0,1.16-.41,1.35-1.01.05-.16.07-.39.07-.58v-1.07Z" style="stroke-width:0px;"/><path d="M154.74,44.32c-.05-1.17-.12-2.58-.11-3.82h-.04c-.3,1.11-.67,2.34-1.08,3.48l-1.34,3.94h-1.27l-1.21-3.89c-.35-1.16-.67-2.4-.92-3.54h-.03c-.04,1.19-.09,2.63-.16,3.87l-.2,3.66h-1.55l.61-9.1h2.19l1.19,3.66c.32,1.07.61,2.15.84,3.16h.04c.24-.99.55-2.11.9-3.17l1.26-3.64h2.16l.53,9.1h-1.62l-.18-3.71Z" style="stroke-width:0px;"/><path d="M163.11,46.45c0,.59.03,1.17.11,1.58h-1.5l-.12-.73h-.04c-.39.51-1.08.88-1.94.88-1.32,0-2.07-.96-2.07-1.96,0-1.65,1.47-2.5,3.9-2.48v-.11c0-.43-.17-1.15-1.34-1.15-.65,0-1.32.2-1.77.49l-.32-1.08c.49-.3,1.34-.58,2.38-.58,2.11,0,2.71,1.34,2.71,2.78v2.36ZM161.49,44.82c-1.17-.01-2.29.23-2.29,1.23,0,.65.42.95.95.95.67,0,1.15-.43,1.31-.91.04-.12.04-.24.04-.36v-.9Z" style="stroke-width:0px;"/><path d="M169.5,47.83c-.35.16-1.04.34-1.86.34-2.05,0-3.39-1.32-3.39-3.36s1.35-3.5,3.66-3.5c.61,0,1.23.13,1.61.3l-.3,1.25c-.27-.13-.66-.26-1.26-.26-1.27,0-2.02.93-2.01,2.13,0,1.35.88,2.12,2.01,2.12.57,0,.99-.12,1.31-.26l.23,1.23Z" style="stroke-width:0px;"/><path d="M170.52,38.43h1.66v3.91h.03c.2-.31.49-.57.82-.74.34-.19.73-.3,1.15-.3,1.12,0,2.29.74,2.29,2.85v3.87h-1.66v-3.7c0-.94-.35-1.67-1.27-1.67-.65,0-1.11.43-1.3.93-.05.15-.07.32-.07.5v3.94h-1.66v-9.6Z" style="stroke-width:0px;"/><path d="M178.87,40.51c-.55,0-.92-.41-.92-.89,0-.51.38-.91.93-.91s.92.39.93.91c0,.49-.36.89-.93.89h-.01ZM178.04,48.03v-6.57h1.66v6.57h-1.66Z" style="stroke-width:0px;"/><path d="M181.3,43.41c0-.76-.03-1.39-.05-1.96h1.44l.08.99h.04c.3-.51,1.01-1.13,2.11-1.13,1.15,0,2.34.74,2.34,2.82v3.9h-1.66v-3.71c0-.94-.35-1.66-1.25-1.66-.66,0-1.12.47-1.3.97-.05.14-.08.34-.08.53v3.87h-1.66v-4.62Z" style="stroke-width:0px;"/><path d="M189.99,45.21c.04,1.19.97,1.7,2.03,1.7.77,0,1.31-.12,1.82-.3l.24,1.13c-.57.24-1.35.42-2.29.42-2.13,0-3.39-1.31-3.39-3.32,0-1.82,1.11-3.54,3.21-3.54s2.83,1.75,2.83,3.2c0,.31-.03.55-.05.7h-4.4ZM192.88,44.05c.01-.61-.26-1.61-1.36-1.61-1.03,0-1.46.93-1.53,1.61h2.89Z" style="stroke-width:0px;"/><path d="M195.58,43.58c0-.89-.01-1.54-.05-2.12h1.43l.07,1.24h.04c.32-.92,1.09-1.39,1.81-1.39.16,0,.26.01.39.04v1.55c-.15-.03-.3-.04-.5-.04-.78,0-1.34.5-1.49,1.26-.03.15-.04.32-.04.5v3.41h-1.66v-4.46Z" style="stroke-width:0px;"/><path d="M201.53,41.46l1.17,3.52c.14.4.28.9.38,1.27h.04c.09-.36.22-.86.35-1.28l1.03-3.51h1.77l-1.65,4.48c-.9,2.46-1.51,3.55-2.28,4.23-.66.57-1.34.78-1.74.84l-.38-1.39c.28-.07.62-.22.96-.46.31-.2.69-.59.92-1.04.05-.12.09-.22.09-.3,0-.07-.01-.16-.08-.32l-2.42-6.03h1.84Z" style="stroke-width:0px;"/><rect x="10.54" y="10.54" width="50.91" height="50.91" transform="translate(-14.91 36) rotate(-45)" style="fill:url(#uuid-7b7c682f-1b81-4cae-93b0-28b4f23247f9); stroke-width:0px;"/><path d="M58.07,36c0,12.19-9.88,22.07-22.07,22.07s-22.07-9.88-22.07-22.07,9.88-22.07,22.07-22.07,22.07,9.88,22.07,22.07Z" style="fill:#fff; stroke-width:0px;"/><path d="M55.87,36c0,10.97-8.89,19.86-19.87,19.86s-19.87-8.89-19.87-19.86,8.89-19.87,19.87-19.87,19.87,8.89,19.87,19.87Z" style="fill:url(#uuid-13e04c3a-2b0d-4c39-8dd1-93665660324e); stroke-width:0px;"/><path d="M24.43,39.87c-.2.17-.39.32-.55.46-.16.14-.38.28-.65.41-.27.13-.53.23-.78.29-.25.06-.6.1-1.06.1-.84,0-1.54-.28-2.1-.85-.56-.57-.84-1.28-.84-2.14,0-.71.14-1.28.42-1.72.28-.44.69-.78,1.22-1.04.54-.26,1.18-.44,1.93-.54.75-.1,1.55-.18,2.41-.24v-.05c0-.53-.2-.89-.58-1.09-.39-.2-.97-.3-1.75-.3-.35,0-.76.06-1.23.19-.47.13-.93.29-1.37.49h-.25v-2.32c.29-.09.77-.19,1.43-.3.66-.12,1.32-.18,1.99-.18,1.65,0,2.85.28,3.6.82.75.55,1.13,1.38,1.13,2.51v6.51h-2.98v-1.01ZM24.43,38.38v-1.98c-.5.05-.91.1-1.21.13-.31.04-.62.11-.91.22-.26.09-.46.23-.61.41-.14.18-.21.43-.21.73,0,.45.12.75.36.92.24.17.59.25,1.06.25.26,0,.52-.06.79-.18.27-.12.51-.29.73-.5Z" style="fill:#fff; stroke-width:0px;"/><path d="M33.97,41.13c-.79,0-1.52-.1-2.17-.3-.66-.2-1.23-.5-1.71-.92-.48-.41-.85-.93-1.12-1.56-.27-.63-.4-1.37-.4-2.22,0-.91.14-1.69.44-2.33.29-.64.68-1.17,1.18-1.58.48-.4,1.04-.69,1.68-.88.65-.19,1.32-.29,2.02-.29.53,0,1.06.06,1.59.18.53.12,1.06.32,1.6.58v2.56h-.38c-.12-.11-.27-.24-.44-.37-.17-.14-.36-.26-.57-.38-.21-.12-.46-.22-.73-.3-.27-.08-.58-.12-.91-.12-.76,0-1.35.26-1.77.79-.42.53-.63,1.24-.63,2.14,0,.96.22,1.67.67,2.14.45.47,1.04.71,1.78.71.37,0,.71-.04.99-.13.29-.08.53-.19.73-.3.2-.12.37-.24.51-.37.14-.12.27-.24.37-.34h.38v2.55c-.17.07-.37.16-.59.26-.22.09-.45.17-.69.24-.29.08-.56.14-.82.18-.25.04-.59.06-1,.06Z" style="fill:#fff; stroke-width:0px;"/><path d="M50.08,40.88v-4.78c0-.47,0-.87-.03-1.19-.02-.32-.07-.59-.15-.79-.09-.2-.22-.35-.4-.45-.18-.09-.43-.14-.76-.14-.23,0-.45.05-.67.15-.22.1-.47.24-.73.42v6.79h-2.98v-4.78c0-.46,0-.86-.03-1.19-.02-.33-.07-.59-.16-.8-.09-.2-.22-.35-.4-.45-.18-.09-.43-.14-.75-.14-.24,0-.48.06-.72.17-.23.12-.46.25-.68.4v6.79h-2.98v-9.56h2.98v1.05c.49-.42.95-.74,1.38-.97.43-.23.92-.35,1.45-.35.59,0,1.1.14,1.54.42.44.28.78.69,1.01,1.24.57-.53,1.12-.94,1.62-1.23.51-.29,1.02-.43,1.54-.43.44,0,.84.07,1.19.21.35.14.65.35.89.64.27.31.47.67.6,1.09.13.42.2.98.2,1.66v6.23h-2.98Z" style="fill:#fff; stroke-width:0px;"/></g></svg>